<?xml version="1.0" encoding="UTF-8" standalone="no"?>
<!DOCTYPE svg PUBLIC "-//W3C//DTD SVG 1.1//EN"
 "http://www.w3.org/Graphics/SVG/1.1/DTD/svg11.dtd">
<!-- Generated by graphviz version 2.40.1 (20161225.0304)
 -->
<!-- Title: dependencies Pages: 1 -->
<svg width="1903pt" height="284pt"
 viewBox="0.00 0.00 1903.00 284.00" xmlns="http://www.w3.org/2000/svg" xmlns:xlink="http://www.w3.org/1999/xlink">
<g id="graph0" class="graph" transform="scale(1 1) rotate(0) translate(4 280)">
<title>dependencies</title>
<polygon fill="#ffffff" stroke="transparent" points="-4,4 -4,-280 1899,-280 1899,4 -4,4"/>
<text text-anchor="start" x="926.5091" y="-42.4" font-family="sans-serif" font-weight="bold" font-size="14.00" fill="#000000">Legend</text>
<polygon fill="#ffffb3" stroke="transparent" points="713.5,-10 713.5,-30 733.5,-30 733.5,-10 713.5,-10"/>
<text text-anchor="start" x="737.129" y="-15.4" font-family="sans-serif" font-size="14.00" fill="#000000"> &#160;Declarations</text>
<polygon fill="#8dd3c7" stroke="transparent" points="826.5,-10 826.5,-30 846.5,-30 846.5,-10 826.5,-10"/>
<text text-anchor="start" x="850.2251" y="-15.4" font-family="sans-serif" font-size="14.00" fill="#000000"> &#160;Module</text>
<polygon fill="#80b1d3" stroke="transparent" points="912.5,-10 912.5,-30 932.5,-30 932.5,-10 912.5,-10"/>
<text text-anchor="start" x="936.2812" y="-15.4" font-family="sans-serif" font-size="14.00" fill="#000000"> &#160;Bootstrap</text>
<polygon fill="#fdb462" stroke="transparent" points="1009.5,-10 1009.5,-30 1029.5,-30 1029.5,-10 1009.5,-10"/>
<text text-anchor="start" x="1033.1732" y="-15.4" font-family="sans-serif" font-size="14.00" fill="#000000"> &#160;Providers</text>
<polygon fill="#fb8072" stroke="transparent" points="1105.5,-10 1105.5,-30 1125.5,-30 1125.5,-10 1105.5,-10"/>
<text text-anchor="start" x="1129.2258" y="-15.4" font-family="sans-serif" font-size="14.00" fill="#000000"> &#160;Exports</text>
<g id="clust1" class="cluster">
<title>cluster_CoreModule</title>
<polygon fill="none" stroke="#000000" stroke-dasharray="1,5" points="8,-70 8,-268 1887,-268 1887,-70 8,-70"/>
</g>
<g id="clust2" class="cluster">
<title>cluster_CoreModule_declarations</title>
<polygon fill="none" stroke="#000000" points="1613,-78 1613,-130 1879,-130 1879,-78 1613,-78"/>
</g>
<g id="clust5" class="cluster">
<title>cluster_CoreModule_imports</title>
<polygon fill="none" stroke="#000000" points="1064,-78 1064,-130 1605,-130 1605,-78 1064,-78"/>
</g>
<g id="clust6" class="cluster">
<title>cluster_CoreModule_exports</title>
<polygon fill="none" stroke="#000000" points="1067,-208 1067,-260 1337,-260 1337,-208 1067,-208"/>
</g>
<g id="clust8" class="cluster">
<title>cluster_CoreModule_providers</title>
<polygon fill="none" stroke="#000000" points="16,-78 16,-130 1056,-130 1056,-78 16,-78"/>
</g>
<!-- ShellComponent -->
<g id="node1" class="node">
<title>ShellComponent</title>
<polygon fill="#ffffb3" stroke="#000000" points="1871.1109,-122 1760.8891,-122 1760.8891,-86 1871.1109,-86 1871.1109,-122"/>
<text text-anchor="middle" x="1816" y="-99.8" font-family="Times,serif" font-size="14.00" fill="#000000">ShellComponent</text>
</g>
<!-- CoreModule -->
<g id="node3" class="node">
<title>CoreModule</title>
<polygon fill="#8dd3c7" stroke="#000000" points="1249.2619,-187 1246.2619,-191 1225.2619,-191 1222.2619,-187 1162.7381,-187 1162.7381,-151 1249.2619,-151 1249.2619,-187"/>
<text text-anchor="middle" x="1206" y="-164.8" font-family="Times,serif" font-size="14.00" fill="#000000">CoreModule</text>
</g>
<!-- ShellComponent&#45;&gt;CoreModule -->
<g id="edge1" class="edge">
<title>ShellComponent&#45;&gt;CoreModule</title>
<path fill="none" stroke="#000000" d="M1816,-122.0109C1816,-144.4852 1816,-180 1816,-180 1816,-180 1259.3807,-180 1259.3807,-180"/>
<polygon fill="#000000" stroke="#000000" points="1259.3807,-176.5001 1249.3807,-180 1259.3806,-183.5001 1259.3807,-176.5001"/>
</g>
<!-- HeaderComponent -->
<g id="node2" class="node">
<title>HeaderComponent</title>
<polygon fill="#ffffb3" stroke="#000000" points="1742.7437,-122 1621.2563,-122 1621.2563,-86 1742.7437,-86 1742.7437,-122"/>
<text text-anchor="middle" x="1682" y="-99.8" font-family="Times,serif" font-size="14.00" fill="#000000">HeaderComponent</text>
</g>
<!-- HeaderComponent&#45;&gt;CoreModule -->
<g id="edge2" class="edge">
<title>HeaderComponent&#45;&gt;CoreModule</title>
<path fill="none" stroke="#000000" d="M1682,-122.1289C1682,-142.5724 1682,-173 1682,-173 1682,-173 1259.5037,-173 1259.5037,-173"/>
<polygon fill="#000000" stroke="#000000" points="1259.5037,-169.5001 1249.5037,-173 1259.5037,-176.5001 1259.5037,-169.5001"/>
</g>
<!-- MaterialModule  -->
<g id="node8" class="node">
<title>MaterialModule </title>
<polygon fill="#fb8072" stroke="#000000" points="1329.4716,-252 1218.5284,-252 1218.5284,-216 1329.4716,-216 1329.4716,-252"/>
<text text-anchor="middle" x="1274" y="-229.8" font-family="Times,serif" font-size="14.00" fill="#000000">MaterialModule </text>
</g>
<!-- CoreModule&#45;&gt;MaterialModule  -->
<g id="edge7" class="edge">
<title>CoreModule&#45;&gt;MaterialModule </title>
<path fill="none" stroke="#000000" stroke-dasharray="5,2" d="M1234.0727,-187.1061C1234.0727,-187.1061 1234.0727,-205.991 1234.0727,-205.991"/>
<polygon fill="#000000" stroke="#000000" points="1230.5728,-205.9909 1234.0727,-215.991 1237.5728,-205.991 1230.5728,-205.9909"/>
</g>
<!-- HeaderComponent  -->
<g id="node9" class="node">
<title>HeaderComponent </title>
<polygon fill="#fb8072" stroke="#000000" points="1200.7436,-252 1075.2564,-252 1075.2564,-216 1200.7436,-216 1200.7436,-252"/>
<text text-anchor="middle" x="1138" y="-229.8" font-family="Times,serif" font-size="14.00" fill="#000000">HeaderComponent </text>
</g>
<!-- CoreModule&#45;&gt;HeaderComponent  -->
<g id="edge8" class="edge">
<title>CoreModule&#45;&gt;HeaderComponent </title>
<path fill="none" stroke="#000000" stroke-dasharray="5,2" d="M1181.6204,-187.1061C1181.6204,-187.1061 1181.6204,-205.991 1181.6204,-205.991"/>
<polygon fill="#000000" stroke="#000000" points="1178.1205,-205.9909 1181.6204,-215.991 1185.1205,-205.991 1178.1205,-205.9909"/>
</g>
<!-- CommonModule -->
<g id="node4" class="node">
<title>CommonModule</title>
<polygon fill="#8dd3c7" stroke="#000000" points="1596.6681,-122 1593.6681,-126 1572.6681,-126 1569.6681,-122 1485.3319,-122 1485.3319,-86 1596.6681,-86 1596.6681,-122"/>
<text text-anchor="middle" x="1541" y="-99.8" font-family="Times,serif" font-size="14.00" fill="#000000">CommonModule</text>
</g>
<!-- CommonModule&#45;&gt;CoreModule -->
<g id="edge3" class="edge">
<title>CommonModule&#45;&gt;CoreModule</title>
<path fill="none" stroke="#000000" d="M1541,-122.2667C1541,-140.5552 1541,-166 1541,-166 1541,-166 1259.452,-166 1259.452,-166"/>
<polygon fill="#000000" stroke="#000000" points="1259.452,-162.5001 1249.452,-166 1259.4519,-169.5001 1259.452,-162.5001"/>
</g>
<!-- MaterialModule -->
<g id="node5" class="node">
<title>MaterialModule</title>
<polygon fill="#8dd3c7" stroke="#000000" points="1467.4706,-122 1464.4706,-126 1443.4706,-126 1440.4706,-122 1360.5294,-122 1360.5294,-86 1467.4706,-86 1467.4706,-122"/>
<text text-anchor="middle" x="1414" y="-99.8" font-family="Times,serif" font-size="14.00" fill="#000000">MaterialModule</text>
</g>
<!-- MaterialModule&#45;&gt;CoreModule -->
<g id="edge4" class="edge">
<title>MaterialModule&#45;&gt;CoreModule</title>
<path fill="none" stroke="#000000" d="M1414,-122.0091C1414,-138.0494 1414,-159 1414,-159 1414,-159 1259.3504,-159 1259.3504,-159"/>
<polygon fill="#000000" stroke="#000000" points="1259.3505,-155.5001 1249.3504,-159 1259.3504,-162.5001 1259.3505,-155.5001"/>
</g>
<!-- AppRoutingModule -->
<g id="node6" class="node">
<title>AppRoutingModule</title>
<polygon fill="#8dd3c7" stroke="#000000" points="1342.2744,-122 1339.2744,-126 1318.2744,-126 1315.2744,-122 1213.7256,-122 1213.7256,-86 1342.2744,-86 1342.2744,-122"/>
<text text-anchor="middle" x="1278" y="-99.8" font-family="Times,serif" font-size="14.00" fill="#000000">AppRoutingModule</text>
</g>
<!-- AppRoutingModule&#45;&gt;CoreModule -->
<g id="edge5" class="edge">
<title>AppRoutingModule&#45;&gt;CoreModule</title>
<path fill="none" stroke="#000000" d="M1231.4969,-122.1061C1231.4969,-122.1061 1231.4969,-140.991 1231.4969,-140.991"/>
<polygon fill="#000000" stroke="#000000" points="1227.9969,-140.9909 1231.4969,-150.991 1234.9969,-140.991 1227.9969,-140.9909"/>
</g>
<!-- FlexLayoutModule -->
<g id="node7" class="node">
<title>FlexLayoutModule</title>
<polygon fill="#8dd3c7" stroke="#000000" points="1196.0954,-122 1193.0954,-126 1172.0954,-126 1169.0954,-122 1071.9046,-122 1071.9046,-86 1196.0954,-86 1196.0954,-122"/>
<text text-anchor="middle" x="1134" y="-99.8" font-family="Times,serif" font-size="14.00" fill="#000000">FlexLayoutModule</text>
</g>
<!-- FlexLayoutModule&#45;&gt;CoreModule -->
<g id="edge6" class="edge">
<title>FlexLayoutModule&#45;&gt;CoreModule</title>
<path fill="none" stroke="#000000" d="M1179.3335,-122.1061C1179.3335,-122.1061 1179.3335,-140.991 1179.3335,-140.991"/>
<polygon fill="#000000" stroke="#000000" points="1175.8335,-140.9909 1179.3335,-150.991 1182.8335,-140.991 1175.8335,-140.9909"/>
</g>
<!-- UserDetailService -->
<g id="node10" class="node">
<title>UserDetailService</title>
<ellipse fill="#fdb462" stroke="#000000" cx="966" cy="-104" rx="81.6326" ry="18"/>
<text text-anchor="middle" x="966" y="-99.8" font-family="Times,serif" font-size="14.00" fill="#000000">UserDetailService</text>
</g>
<!-- UserDetailService&#45;&gt;CoreModule -->
<g id="edge9" class="edge">
<title>UserDetailService&#45;&gt;CoreModule</title>
<path fill="none" stroke="#000000" d="M966,-122.0091C966,-138.0494 966,-159 966,-159 966,-159 1152.5378,-159 1152.5378,-159"/>
<polygon fill="#000000" stroke="#000000" points="1152.5378,-162.5001 1162.5378,-159 1152.5378,-155.5001 1152.5378,-162.5001"/>
</g>
<!-- { provide: AuthServiceConfig, useFactory: getAuthServiceConfigs } -->
<g id="node11" class="node">
<title>{ provide: AuthServiceConfig, useFactory: getAuthServiceConfigs }</title>
<ellipse fill="#fdb462" stroke="#000000" cx="588" cy="-104" rx="277.5248" ry="18"/>
<text text-anchor="middle" x="588" y="-99.8" font-family="Times,serif" font-size="14.00" fill="#000000">{ provide: AuthServiceConfig, useFactory: getAuthServiceConfigs }</text>
</g>
<!-- { provide: AuthServiceConfig, useFactory: getAuthServiceConfigs }&#45;&gt;CoreModule -->
<g id="edge10" class="edge">
<title>{ provide: AuthServiceConfig, useFactory: getAuthServiceConfigs }&#45;&gt;CoreModule</title>
<path fill="none" stroke="#000000" d="M588,-122.2667C588,-140.5552 588,-166 588,-166 588,-166 1152.5434,-166 1152.5434,-166"/>
<polygon fill="#000000" stroke="#000000" points="1152.5435,-169.5001 1162.5434,-166 1152.5434,-162.5001 1152.5435,-169.5001"/>
</g>
<!-- SignInService -->
<g id="node12" class="node">
<title>SignInService</title>
<ellipse fill="#fdb462" stroke="#000000" cx="226" cy="-104" rx="65.989" ry="18"/>
<text text-anchor="middle" x="226" y="-99.8" font-family="Times,serif" font-size="14.00" fill="#000000">SignInService</text>
</g>
<!-- SignInService&#45;&gt;CoreModule -->
<g id="edge11" class="edge">
<title>SignInService&#45;&gt;CoreModule</title>
<path fill="none" stroke="#000000" d="M226,-122.1289C226,-142.5724 226,-173 226,-173 226,-173 1152.6261,-173 1152.6261,-173"/>
<polygon fill="#000000" stroke="#000000" points="1152.6262,-176.5001 1162.6261,-173 1152.6261,-169.5001 1152.6262,-176.5001"/>
</g>
<!-- AuthService -->
<g id="node13" class="node">
<title>AuthService</title>
<ellipse fill="#fdb462" stroke="#000000" cx="83" cy="-104" rx="59.1083" ry="18"/>
<text text-anchor="middle" x="83" y="-99.8" font-family="Times,serif" font-size="14.00" fill="#000000">AuthService</text>
</g>
<!-- AuthService&#45;&gt;CoreModule -->
<g id="edge12" class="edge">
<title>AuthService&#45;&gt;CoreModule</title>
<path fill="none" stroke="#000000" d="M83,-122.0109C83,-144.4852 83,-180 83,-180 83,-180 1152.6652,-180 1152.6652,-180"/>
<polygon fill="#000000" stroke="#000000" points="1152.6652,-183.5001 1162.6652,-180 1152.6651,-176.5001 1152.6652,-183.5001"/>
</g>
</g>
</svg>
