<?xml version="1.0" encoding="UTF-8" standalone="no"?>
<!DOCTYPE svg PUBLIC "-//W3C//DTD SVG 1.1//EN"
 "http://www.w3.org/Graphics/SVG/1.1/DTD/svg11.dtd">
<!-- Generated by graphviz version 2.40.1 (20161225.0304)
 -->
<!-- Title: dependencies Pages: 1 -->
<svg width="3471pt" height="284pt"
 viewBox="0.00 0.00 3471.00 284.00" xmlns="http://www.w3.org/2000/svg" xmlns:xlink="http://www.w3.org/1999/xlink">
<g id="graph0" class="graph" transform="scale(1 1) rotate(0) translate(4 280)">
<title>dependencies</title>
<polygon fill="#ffffff" stroke="transparent" points="-4,4 -4,-280 3467,-280 3467,4 -4,4"/>
<text text-anchor="start" x="1710.5091" y="-42.4" font-family="sans-serif" font-weight="bold" font-size="14.00" fill="#000000">Legend</text>
<polygon fill="#ffffb3" stroke="transparent" points="1497.5,-10 1497.5,-30 1517.5,-30 1517.5,-10 1497.5,-10"/>
<text text-anchor="start" x="1521.129" y="-15.4" font-family="sans-serif" font-size="14.00" fill="#000000"> &#160;Declarations</text>
<polygon fill="#8dd3c7" stroke="transparent" points="1610.5,-10 1610.5,-30 1630.5,-30 1630.5,-10 1610.5,-10"/>
<text text-anchor="start" x="1634.2251" y="-15.4" font-family="sans-serif" font-size="14.00" fill="#000000"> &#160;Module</text>
<polygon fill="#80b1d3" stroke="transparent" points="1696.5,-10 1696.5,-30 1716.5,-30 1716.5,-10 1696.5,-10"/>
<text text-anchor="start" x="1720.2812" y="-15.4" font-family="sans-serif" font-size="14.00" fill="#000000"> &#160;Bootstrap</text>
<polygon fill="#fdb462" stroke="transparent" points="1793.5,-10 1793.5,-30 1813.5,-30 1813.5,-10 1793.5,-10"/>
<text text-anchor="start" x="1817.1732" y="-15.4" font-family="sans-serif" font-size="14.00" fill="#000000"> &#160;Providers</text>
<polygon fill="#fb8072" stroke="transparent" points="1889.5,-10 1889.5,-30 1909.5,-30 1909.5,-10 1889.5,-10"/>
<text text-anchor="start" x="1913.2258" y="-15.4" font-family="sans-serif" font-size="14.00" fill="#000000"> &#160;Exports</text>
<g id="clust1" class="cluster">
<title>cluster_SharedModule</title>
<polygon fill="none" stroke="#000000" stroke-dasharray="1,5" points="8,-70 8,-268 3455,-268 3455,-70 8,-70"/>
</g>
<g id="clust2" class="cluster">
<title>cluster_SharedModule_declarations</title>
<polygon fill="none" stroke="#000000" points="2021,-78 2021,-130 3447,-130 3447,-78 2021,-78"/>
</g>
<g id="clust11" class="cluster">
<title>cluster_SharedModule_imports</title>
<polygon fill="none" stroke="#000000" points="794,-78 794,-130 2013,-130 2013,-78 794,-78"/>
</g>
<g id="clust12" class="cluster">
<title>cluster_SharedModule_exports</title>
<polygon fill="none" stroke="#000000" points="1381,-208 1381,-260 2421,-260 2421,-208 1381,-208"/>
</g>
<g id="clust14" class="cluster">
<title>cluster_SharedModule_providers</title>
<polygon fill="none" stroke="#000000" points="16,-78 16,-130 786,-130 786,-78 16,-78"/>
</g>
<!-- MovieBookingComponent -->
<g id="node1" class="node">
<title>MovieBookingComponent</title>
<polygon fill="#ffffb3" stroke="#000000" points="3439.1094,-122 3272.8906,-122 3272.8906,-86 3439.1094,-86 3439.1094,-122"/>
<text text-anchor="middle" x="3356" y="-99.8" font-family="Times,serif" font-size="14.00" fill="#000000">MovieBookingComponent</text>
</g>
<!-- SharedModule -->
<g id="node9" class="node">
<title>SharedModule</title>
<polygon fill="#8dd3c7" stroke="#000000" points="1868.4231,-187 1865.4231,-191 1844.4231,-191 1841.4231,-187 1769.5769,-187 1769.5769,-151 1868.4231,-151 1868.4231,-187"/>
<text text-anchor="middle" x="1819" y="-164.8" font-family="Times,serif" font-size="14.00" fill="#000000">SharedModule</text>
</g>
<!-- MovieBookingComponent&#45;&gt;SharedModule -->
<g id="edge1" class="edge">
<title>MovieBookingComponent&#45;&gt;SharedModule</title>
<path fill="none" stroke="#000000" d="M3356,-122.2921C3356,-144.2057 3356,-178 3356,-178 3356,-178 1878.3979,-178 1878.3979,-178"/>
<polygon fill="#000000" stroke="#000000" points="1878.398,-174.5001 1868.3979,-178 1878.3979,-181.5001 1878.398,-174.5001"/>
</g>
<!-- SeatReservationModalComponent -->
<g id="node2" class="node">
<title>SeatReservationModalComponent</title>
<polygon fill="#ffffb3" stroke="#000000" points="3255.3515,-122 3046.6485,-122 3046.6485,-86 3255.3515,-86 3255.3515,-122"/>
<text text-anchor="middle" x="3151" y="-99.8" font-family="Times,serif" font-size="14.00" fill="#000000">SeatReservationModalComponent</text>
</g>
<!-- SeatReservationModalComponent&#45;&gt;SharedModule -->
<g id="edge2" class="edge">
<title>SeatReservationModalComponent&#45;&gt;SharedModule</title>
<path fill="none" stroke="#000000" d="M3151,-122.2843C3151,-143.3211 3151,-175 3151,-175 3151,-175 1878.3849,-175 1878.3849,-175"/>
<polygon fill="#000000" stroke="#000000" points="1878.3849,-171.5001 1868.3849,-175 1878.3849,-178.5001 1878.3849,-171.5001"/>
</g>
<!-- MovieDropdownsComponent -->
<g id="node3" class="node">
<title>MovieDropdownsComponent</title>
<polygon fill="#ffffb3" stroke="#000000" points="3028.7007,-122 2845.2993,-122 2845.2993,-86 3028.7007,-86 3028.7007,-122"/>
<text text-anchor="middle" x="2937" y="-99.8" font-family="Times,serif" font-size="14.00" fill="#000000">MovieDropdownsComponent</text>
</g>
<!-- MovieDropdownsComponent&#45;&gt;SharedModule -->
<g id="edge3" class="edge">
<title>MovieDropdownsComponent&#45;&gt;SharedModule</title>
<path fill="none" stroke="#000000" d="M2937,-122.2228C2937,-142.3652 2937,-172 2937,-172 2937,-172 1878.4816,-172 1878.4816,-172"/>
<polygon fill="#000000" stroke="#000000" points="1878.4817,-168.5001 1868.4816,-172 1878.4816,-175.5001 1878.4817,-168.5001"/>
</g>
<!-- ConfirmationModalComponent -->
<g id="node4" class="node">
<title>ConfirmationModalComponent</title>
<polygon fill="#ffffb3" stroke="#000000" points="2827.8173,-122 2634.1827,-122 2634.1827,-86 2827.8173,-86 2827.8173,-122"/>
<text text-anchor="middle" x="2731" y="-99.8" font-family="Times,serif" font-size="14.00" fill="#000000">ConfirmationModalComponent</text>
</g>
<!-- ConfirmationModalComponent&#45;&gt;SharedModule -->
<g id="edge4" class="edge">
<title>ConfirmationModalComponent&#45;&gt;SharedModule</title>
<path fill="none" stroke="#000000" d="M2731,-122.1061C2731,-141.3391 2731,-169 2731,-169 2731,-169 1878.3564,-169 1878.3564,-169"/>
<polygon fill="#000000" stroke="#000000" points="1878.3565,-165.5001 1868.3564,-169 1878.3564,-172.5001 1878.3565,-165.5001"/>
</g>
<!-- PaymentBookingComponent -->
<g id="node5" class="node">
<title>PaymentBookingComponent</title>
<polygon fill="#ffffb3" stroke="#000000" points="2616.0532,-122 2437.9468,-122 2437.9468,-86 2616.0532,-86 2616.0532,-122"/>
<text text-anchor="middle" x="2527" y="-99.8" font-family="Times,serif" font-size="14.00" fill="#000000">PaymentBookingComponent</text>
</g>
<!-- PaymentBookingComponent&#45;&gt;SharedModule -->
<g id="edge5" class="edge">
<title>PaymentBookingComponent&#45;&gt;SharedModule</title>
<path fill="none" stroke="#000000" d="M2527,-122.2667C2527,-140.5552 2527,-166 2527,-166 2527,-166 1878.2231,-166 1878.2231,-166"/>
<polygon fill="#000000" stroke="#000000" points="1878.2231,-162.5001 1868.2231,-166 1878.223,-169.5001 1878.2231,-162.5001"/>
</g>
<!-- SortMoviePipe -->
<g id="node6" class="node">
<title>SortMoviePipe</title>
<polygon fill="#ffffb3" stroke="#000000" points="2419.2717,-122 2318.7283,-122 2318.7283,-86 2419.2717,-86 2419.2717,-122"/>
<text text-anchor="middle" x="2369" y="-99.8" font-family="Times,serif" font-size="14.00" fill="#000000">SortMoviePipe</text>
</g>
<!-- SortMoviePipe&#45;&gt;SharedModule -->
<g id="edge6" class="edge">
<title>SortMoviePipe&#45;&gt;SharedModule</title>
<path fill="none" stroke="#000000" d="M2365.7095,-122.0225C2365.7095,-139.3734 2365.7095,-163 2365.7095,-163 2365.7095,-163 1878.4811,-163 1878.4811,-163"/>
<polygon fill="#000000" stroke="#000000" points="1878.4811,-159.5001 1868.4811,-163 1878.481,-166.5001 1878.4811,-159.5001"/>
</g>
<!-- HomeFilterPipe -->
<g id="node7" class="node">
<title>HomeFilterPipe</title>
<polygon fill="#ffffb3" stroke="#000000" points="2300.9301,-122 2195.0699,-122 2195.0699,-86 2300.9301,-86 2300.9301,-122"/>
<text text-anchor="middle" x="2248" y="-99.8" font-family="Times,serif" font-size="14.00" fill="#000000">HomeFilterPipe</text>
</g>
<!-- HomeFilterPipe&#45;&gt;SharedModule -->
<g id="edge7" class="edge">
<title>HomeFilterPipe&#45;&gt;SharedModule</title>
<path fill="none" stroke="#000000" d="M2210.2306,-122.027C2210.2306,-138.3976 2210.2306,-160 2210.2306,-160 2210.2306,-160 1878.5496,-160 1878.5496,-160"/>
<polygon fill="#000000" stroke="#000000" points="1878.5497,-156.5001 1868.5496,-160 1878.5496,-163.5001 1878.5497,-156.5001"/>
</g>
<!-- PreBookingComponent -->
<g id="node8" class="node">
<title>PreBookingComponent</title>
<polygon fill="#ffffb3" stroke="#000000" points="2177.2176,-122 2028.7824,-122 2028.7824,-86 2177.2176,-86 2177.2176,-122"/>
<text text-anchor="middle" x="2103" y="-99.8" font-family="Times,serif" font-size="14.00" fill="#000000">PreBookingComponent</text>
</g>
<!-- PreBookingComponent&#45;&gt;SharedModule -->
<g id="edge8" class="edge">
<title>PreBookingComponent&#45;&gt;SharedModule</title>
<path fill="none" stroke="#000000" d="M2103,-122.2396C2103,-137.5706 2103,-157 2103,-157 2103,-157 1878.469,-157 1878.469,-157"/>
<polygon fill="#000000" stroke="#000000" points="1878.4691,-153.5001 1868.469,-157 1878.469,-160.5001 1878.4691,-153.5001"/>
</g>
<!-- MovieBookingComponent  -->
<g id="node19" class="node">
<title>MovieBookingComponent </title>
<polygon fill="#fb8072" stroke="#000000" points="2412.6098,-252 2243.3902,-252 2243.3902,-216 2412.6098,-216 2412.6098,-252"/>
<text text-anchor="middle" x="2328" y="-229.8" font-family="Times,serif" font-size="14.00" fill="#000000">MovieBookingComponent </text>
</g>
<!-- SharedModule&#45;&gt;MovieBookingComponent  -->
<g id="edge18" class="edge">
<title>SharedModule&#45;&gt;MovieBookingComponent </title>
<path fill="none" stroke="#000000" stroke-dasharray="5,2" d="M1868.3364,-181C1985.7324,-181 2271.955,-181 2271.955,-181 2271.955,-181 2271.955,-205.7604 2271.955,-205.7604"/>
<polygon fill="#000000" stroke="#000000" points="2268.455,-205.7604 2271.955,-215.7604 2275.455,-205.7604 2268.455,-205.7604"/>
</g>
<!-- SeatReservationModalComponent  -->
<g id="node20" class="node">
<title>SeatReservationModalComponent </title>
<polygon fill="#fb8072" stroke="#000000" points="2225.3517,-252 2012.6483,-252 2012.6483,-216 2225.3517,-216 2225.3517,-252"/>
<text text-anchor="middle" x="2119" y="-229.8" font-family="Times,serif" font-size="14.00" fill="#000000">SeatReservationModalComponent </text>
</g>
<!-- SharedModule&#45;&gt;SeatReservationModalComponent  -->
<g id="edge19" class="edge">
<title>SharedModule&#45;&gt;SeatReservationModalComponent </title>
<path fill="none" stroke="#000000" stroke-dasharray="5,2" d="M1868.38,-184C1928.1397,-184 2020.8578,-184 2020.8578,-184 2020.8578,-184 2020.8578,-205.9489 2020.8578,-205.9489"/>
<polygon fill="#000000" stroke="#000000" points="2017.3579,-205.9488 2020.8578,-215.9489 2024.3579,-205.9489 2017.3579,-205.9488"/>
</g>
<!-- MovieDropdownsComponent  -->
<g id="node21" class="node">
<title>MovieDropdownsComponent </title>
<polygon fill="#fb8072" stroke="#000000" points="1994.2008,-252 1807.7992,-252 1807.7992,-216 1994.2008,-216 1994.2008,-252"/>
<text text-anchor="middle" x="1901" y="-229.8" font-family="Times,serif" font-size="14.00" fill="#000000">MovieDropdownsComponent </text>
</g>
<!-- SharedModule&#45;&gt;MovieDropdownsComponent  -->
<g id="edge20" class="edge">
<title>SharedModule&#45;&gt;MovieDropdownsComponent </title>
<path fill="none" stroke="#000000" stroke-dasharray="5,2" d="M1837.9304,-187.1061C1837.9304,-187.1061 1837.9304,-205.991 1837.9304,-205.991"/>
<polygon fill="#000000" stroke="#000000" points="1834.4305,-205.9909 1837.9304,-215.991 1841.4305,-205.991 1834.4305,-205.9909"/>
</g>
<!-- SortMoviePipe  -->
<g id="node22" class="node">
<title>SortMoviePipe </title>
<polygon fill="#fb8072" stroke="#000000" points="1790.2718,-252 1685.7282,-252 1685.7282,-216 1790.2718,-216 1790.2718,-252"/>
<text text-anchor="middle" x="1738" y="-229.8" font-family="Times,serif" font-size="14.00" fill="#000000">SortMoviePipe </text>
</g>
<!-- SharedModule&#45;&gt;SortMoviePipe  -->
<g id="edge21" class="edge">
<title>SharedModule&#45;&gt;SortMoviePipe </title>
<path fill="none" stroke="#000000" stroke-dasharray="5,2" d="M1779.9623,-187.1061C1779.9623,-187.1061 1779.9623,-205.991 1779.9623,-205.991"/>
<polygon fill="#000000" stroke="#000000" points="1776.4624,-205.9909 1779.9623,-215.991 1783.4624,-205.991 1776.4624,-205.9909"/>
</g>
<!-- HomeFilterPipe  -->
<g id="node23" class="node">
<title>HomeFilterPipe </title>
<polygon fill="#fb8072" stroke="#000000" points="1667.4292,-252 1558.5708,-252 1558.5708,-216 1667.4292,-216 1667.4292,-252"/>
<text text-anchor="middle" x="1613" y="-229.8" font-family="Times,serif" font-size="14.00" fill="#000000">HomeFilterPipe </text>
</g>
<!-- SharedModule&#45;&gt;HomeFilterPipe  -->
<g id="edge22" class="edge">
<title>SharedModule&#45;&gt;HomeFilterPipe </title>
<path fill="none" stroke="#000000" stroke-dasharray="5,2" d="M1769.7835,-184C1717.5039,-184 1642.3154,-184 1642.3154,-184 1642.3154,-184 1642.3154,-205.9489 1642.3154,-205.9489"/>
<polygon fill="#000000" stroke="#000000" points="1638.8155,-205.9488 1642.3154,-215.9489 1645.8155,-205.9489 1638.8155,-205.9488"/>
</g>
<!-- PreBookingComponent  -->
<g id="node24" class="node">
<title>PreBookingComponent </title>
<polygon fill="#fb8072" stroke="#000000" points="1540.7177,-252 1389.2823,-252 1389.2823,-216 1540.7177,-216 1540.7177,-252"/>
<text text-anchor="middle" x="1465" y="-229.8" font-family="Times,serif" font-size="14.00" fill="#000000">PreBookingComponent </text>
</g>
<!-- SharedModule&#45;&gt;PreBookingComponent  -->
<g id="edge23" class="edge">
<title>SharedModule&#45;&gt;PreBookingComponent </title>
<path fill="none" stroke="#000000" stroke-dasharray="5,2" d="M1769.7553,-181C1684.0913,-181 1516.6867,-181 1516.6867,-181 1516.6867,-181 1516.6867,-205.7604 1516.6867,-205.7604"/>
<polygon fill="#000000" stroke="#000000" points="1513.1868,-205.7604 1516.6867,-215.7604 1520.1868,-205.7604 1513.1868,-205.7604"/>
</g>
<!-- FormsModule -->
<g id="node10" class="node">
<title>FormsModule</title>
<polygon fill="#8dd3c7" stroke="#000000" points="2004.8288,-122 2001.8288,-126 1980.8288,-126 1977.8288,-122 1909.1712,-122 1909.1712,-86 2004.8288,-86 2004.8288,-122"/>
<text text-anchor="middle" x="1957" y="-99.8" font-family="Times,serif" font-size="14.00" fill="#000000">FormsModule</text>
</g>
<!-- FormsModule&#45;&gt;SharedModule -->
<g id="edge9" class="edge">
<title>FormsModule&#45;&gt;SharedModule</title>
<path fill="none" stroke="#000000" d="M1951.8431,-122.0511C1951.8431,-136.373 1951.8431,-154 1951.8431,-154 1951.8431,-154 1878.4659,-154 1878.4659,-154"/>
<polygon fill="#000000" stroke="#000000" points="1878.4659,-150.5001 1868.4659,-154 1878.4658,-157.5001 1878.4659,-150.5001"/>
</g>
<!-- ReactiveFormsModule -->
<g id="node11" class="node">
<title>ReactiveFormsModule</title>
<polygon fill="#8dd3c7" stroke="#000000" points="1891.3047,-122 1888.3047,-126 1867.3047,-126 1864.3047,-122 1746.6953,-122 1746.6953,-86 1891.3047,-86 1891.3047,-122"/>
<text text-anchor="middle" x="1819" y="-99.8" font-family="Times,serif" font-size="14.00" fill="#000000">ReactiveFormsModule</text>
</g>
<!-- ReactiveFormsModule&#45;&gt;SharedModule -->
<g id="edge10" class="edge">
<title>ReactiveFormsModule&#45;&gt;SharedModule</title>
<path fill="none" stroke="#000000" d="M1819,-122.1061C1819,-122.1061 1819,-140.991 1819,-140.991"/>
<polygon fill="#000000" stroke="#000000" points="1815.5001,-140.9909 1819,-150.991 1822.5001,-140.991 1815.5001,-140.9909"/>
</g>
<!-- CommonModule -->
<g id="node12" class="node">
<title>CommonModule</title>
<polygon fill="#8dd3c7" stroke="#000000" points="1728.6681,-122 1725.6681,-126 1704.6681,-126 1701.6681,-122 1617.3319,-122 1617.3319,-86 1728.6681,-86 1728.6681,-122"/>
<text text-anchor="middle" x="1673" y="-99.8" font-family="Times,serif" font-size="14.00" fill="#000000">CommonModule</text>
</g>
<!-- CommonModule&#45;&gt;SharedModule -->
<g id="edge11" class="edge">
<title>CommonModule&#45;&gt;SharedModule</title>
<path fill="none" stroke="#000000" d="M1707.349,-122.0511C1707.349,-136.373 1707.349,-154 1707.349,-154 1707.349,-154 1759.7033,-154 1759.7033,-154"/>
<polygon fill="#000000" stroke="#000000" points="1759.7033,-157.5001 1769.7033,-154 1759.7032,-150.5001 1759.7033,-157.5001"/>
</g>
<!-- MaterialModule -->
<g id="node13" class="node">
<title>MaterialModule</title>
<polygon fill="#8dd3c7" stroke="#000000" points="1599.4706,-122 1596.4706,-126 1575.4706,-126 1572.4706,-122 1492.5294,-122 1492.5294,-86 1599.4706,-86 1599.4706,-122"/>
<text text-anchor="middle" x="1546" y="-99.8" font-family="Times,serif" font-size="14.00" fill="#000000">MaterialModule</text>
</g>
<!-- MaterialModule&#45;&gt;SharedModule -->
<g id="edge12" class="edge">
<title>MaterialModule&#45;&gt;SharedModule</title>
<path fill="none" stroke="#000000" d="M1579.0104,-122.2396C1579.0104,-137.5706 1579.0104,-157 1579.0104,-157 1579.0104,-157 1759.565,-157 1759.565,-157"/>
<polygon fill="#000000" stroke="#000000" points="1759.565,-160.5001 1769.565,-157 1759.5649,-153.5001 1759.565,-160.5001"/>
</g>
<!-- FlexLayoutModule -->
<g id="node14" class="node">
<title>FlexLayoutModule</title>
<polygon fill="#8dd3c7" stroke="#000000" points="1474.0954,-122 1471.0954,-126 1450.0954,-126 1447.0954,-122 1349.9046,-122 1349.9046,-86 1474.0954,-86 1474.0954,-122"/>
<text text-anchor="middle" x="1412" y="-99.8" font-family="Times,serif" font-size="14.00" fill="#000000">FlexLayoutModule</text>
</g>
<!-- FlexLayoutModule&#45;&gt;SharedModule -->
<g id="edge13" class="edge">
<title>FlexLayoutModule&#45;&gt;SharedModule</title>
<path fill="none" stroke="#000000" d="M1431.5945,-122.027C1431.5945,-138.3976 1431.5945,-160 1431.5945,-160 1431.5945,-160 1759.5413,-160 1759.5413,-160"/>
<polygon fill="#000000" stroke="#000000" points="1759.5414,-163.5001 1769.5413,-160 1759.5413,-156.5001 1759.5414,-163.5001"/>
</g>
<!-- MatCheckboxModule -->
<g id="node15" class="node">
<title>MatCheckboxModule</title>
<polygon fill="#8dd3c7" stroke="#000000" points="1332.3655,-122 1329.3655,-126 1308.3655,-126 1305.3655,-122 1193.6345,-122 1193.6345,-86 1332.3655,-86 1332.3655,-122"/>
<text text-anchor="middle" x="1263" y="-99.8" font-family="Times,serif" font-size="14.00" fill="#000000">MatCheckboxModule</text>
</g>
<!-- MatCheckboxModule&#45;&gt;SharedModule -->
<g id="edge14" class="edge">
<title>MatCheckboxModule&#45;&gt;SharedModule</title>
<path fill="none" stroke="#000000" d="M1263,-122.0225C1263,-139.3734 1263,-163 1263,-163 1263,-163 1759.6587,-163 1759.6587,-163"/>
<polygon fill="#000000" stroke="#000000" points="1759.6587,-166.5001 1769.6587,-163 1759.6587,-159.5001 1759.6587,-166.5001"/>
</g>
<!-- MatIconModule -->
<g id="node16" class="node">
<title>MatIconModule</title>
<polygon fill="#8dd3c7" stroke="#000000" points="1175.4748,-122 1172.4748,-126 1151.4748,-126 1148.4748,-122 1068.5252,-122 1068.5252,-86 1175.4748,-86 1175.4748,-122"/>
<text text-anchor="middle" x="1122" y="-99.8" font-family="Times,serif" font-size="14.00" fill="#000000">MatIconModule</text>
</g>
<!-- MatIconModule&#45;&gt;SharedModule -->
<g id="edge15" class="edge">
<title>MatIconModule&#45;&gt;SharedModule</title>
<path fill="none" stroke="#000000" d="M1122,-122.2667C1122,-140.5552 1122,-166 1122,-166 1122,-166 1759.7106,-166 1759.7106,-166"/>
<polygon fill="#000000" stroke="#000000" points="1759.7106,-169.5001 1769.7106,-166 1759.7106,-162.5001 1759.7106,-169.5001"/>
</g>
<!-- MatDialogModule -->
<g id="node17" class="node">
<title>MatDialogModule</title>
<polygon fill="#8dd3c7" stroke="#000000" points="1050.2022,-122 1047.2022,-126 1026.2022,-126 1023.2022,-122 929.7978,-122 929.7978,-86 1050.2022,-86 1050.2022,-122"/>
<text text-anchor="middle" x="990" y="-99.8" font-family="Times,serif" font-size="14.00" fill="#000000">MatDialogModule</text>
</g>
<!-- MatDialogModule&#45;&gt;SharedModule -->
<g id="edge16" class="edge">
<title>MatDialogModule&#45;&gt;SharedModule</title>
<path fill="none" stroke="#000000" d="M990,-122.1061C990,-141.3391 990,-169 990,-169 990,-169 1759.6249,-169 1759.6249,-169"/>
<polygon fill="#000000" stroke="#000000" points="1759.6249,-172.5001 1769.6249,-169 1759.6249,-165.5001 1759.6249,-172.5001"/>
</g>
<!-- MatCardModule -->
<g id="node18" class="node">
<title>MatCardModule</title>
<polygon fill="#8dd3c7" stroke="#000000" points="911.8118,-122 908.8118,-126 887.8118,-126 884.8118,-122 802.1882,-122 802.1882,-86 911.8118,-86 911.8118,-122"/>
<text text-anchor="middle" x="857" y="-99.8" font-family="Times,serif" font-size="14.00" fill="#000000">MatCardModule</text>
</g>
<!-- MatCardModule&#45;&gt;SharedModule -->
<g id="edge17" class="edge">
<title>MatCardModule&#45;&gt;SharedModule</title>
<path fill="none" stroke="#000000" d="M857,-122.2228C857,-142.3652 857,-172 857,-172 857,-172 1759.6386,-172 1759.6386,-172"/>
<polygon fill="#000000" stroke="#000000" points="1759.6386,-175.5001 1769.6386,-172 1759.6385,-168.5001 1759.6386,-175.5001"/>
</g>
<!-- { provide: MatDialogRef, useValue: &#160;} -->
<g id="node25" class="node">
<title>{ provide: MatDialogRef, useValue: &#160;}</title>
<ellipse fill="#fdb462" stroke="#000000" cx="617" cy="-104" rx="161.2267" ry="18"/>
<text text-anchor="middle" x="617" y="-99.8" font-family="Times,serif" font-size="14.00" fill="#000000">{ provide: MatDialogRef, useValue: &#160;}</text>
</g>
<!-- { provide: MatDialogRef, useValue: &#160;}&#45;&gt;SharedModule -->
<g id="edge24" class="edge">
<title>{ provide: MatDialogRef, useValue: &#160;}&#45;&gt;SharedModule</title>
<path fill="none" stroke="#000000" d="M617,-122.2843C617,-143.3211 617,-175 617,-175 617,-175 1759.6393,-175 1759.6393,-175"/>
<polygon fill="#000000" stroke="#000000" points="1759.6393,-178.5001 1769.6393,-175 1759.6392,-171.5001 1759.6393,-178.5001"/>
</g>
<!-- { provide: MAT_DIALOG_DATA, useValue: [] } -->
<g id="node26" class="node">
<title>{ provide: MAT_DIALOG_DATA, useValue: [] }</title>
<ellipse fill="#fdb462" stroke="#000000" cx="231" cy="-104" rx="206.8785" ry="18"/>
<text text-anchor="middle" x="231" y="-99.8" font-family="Times,serif" font-size="14.00" fill="#000000">{ provide: MAT_DIALOG_DATA, useValue: [] }</text>
</g>
<!-- { provide: MAT_DIALOG_DATA, useValue: [] }&#45;&gt;SharedModule -->
<g id="edge25" class="edge">
<title>{ provide: MAT_DIALOG_DATA, useValue: [] }&#45;&gt;SharedModule</title>
<path fill="none" stroke="#000000" d="M231,-122.2921C231,-144.2057 231,-178 231,-178 231,-178 1759.733,-178 1759.733,-178"/>
<polygon fill="#000000" stroke="#000000" points="1759.733,-181.5001 1769.733,-178 1759.7329,-174.5001 1759.733,-181.5001"/>
</g>
</g>
</svg>
