<?xml version="1.0" encoding="UTF-8" standalone="no"?>
<!DOCTYPE svg PUBLIC "-//W3C//DTD SVG 1.1//EN"
 "http://www.w3.org/Graphics/SVG/1.1/DTD/svg11.dtd">
<!-- Generated by graphviz version 2.40.1 (20161225.0304)
 -->
<!-- Title: dependencies Pages: 1 -->
<svg width="1641pt" height="211pt"
 viewBox="0.00 0.00 1641.00 211.00" xmlns="http://www.w3.org/2000/svg" xmlns:xlink="http://www.w3.org/1999/xlink">
<g id="graph0" class="graph" transform="scale(1 1) rotate(0) translate(4 207)">
<title>dependencies</title>
<polygon fill="#ffffff" stroke="transparent" points="-4,4 -4,-207 1637,-207 1637,4 -4,4"/>
<text text-anchor="start" x="795.5091" y="-42.4" font-family="sans-serif" font-weight="bold" font-size="14.00" fill="#000000">Legend</text>
<polygon fill="#ffffb3" stroke="transparent" points="582.5,-10 582.5,-30 602.5,-30 602.5,-10 582.5,-10"/>
<text text-anchor="start" x="606.129" y="-15.4" font-family="sans-serif" font-size="14.00" fill="#000000"> &#160;Declarations</text>
<polygon fill="#8dd3c7" stroke="transparent" points="695.5,-10 695.5,-30 715.5,-30 715.5,-10 695.5,-10"/>
<text text-anchor="start" x="719.2251" y="-15.4" font-family="sans-serif" font-size="14.00" fill="#000000"> &#160;Module</text>
<polygon fill="#80b1d3" stroke="transparent" points="781.5,-10 781.5,-30 801.5,-30 801.5,-10 781.5,-10"/>
<text text-anchor="start" x="805.2812" y="-15.4" font-family="sans-serif" font-size="14.00" fill="#000000"> &#160;Bootstrap</text>
<polygon fill="#fdb462" stroke="transparent" points="878.5,-10 878.5,-30 898.5,-30 898.5,-10 878.5,-10"/>
<text text-anchor="start" x="902.1732" y="-15.4" font-family="sans-serif" font-size="14.00" fill="#000000"> &#160;Providers</text>
<polygon fill="#fb8072" stroke="transparent" points="974.5,-10 974.5,-30 994.5,-30 994.5,-10 974.5,-10"/>
<text text-anchor="start" x="998.2258" y="-15.4" font-family="sans-serif" font-size="14.00" fill="#000000"> &#160;Exports</text>
<g id="clust1" class="cluster">
<title>cluster_AdminModule</title>
<polygon fill="none" stroke="#000000" stroke-dasharray="1,5" points="8,-70 8,-195 1625,-195 1625,-70 8,-70"/>
</g>
<g id="clust2" class="cluster">
<title>cluster_AdminModule_declarations</title>
<polygon fill="none" stroke="#000000" points="1141,-78 1141,-130 1617,-130 1617,-78 1141,-78"/>
</g>
<g id="clust6" class="cluster">
<title>cluster_AdminModule_imports</title>
<polygon fill="none" stroke="#000000" points="174,-78 174,-130 1133,-130 1133,-78 174,-78"/>
</g>
<g id="clust9" class="cluster">
<title>cluster_AdminModule_providers</title>
<polygon fill="none" stroke="#000000" points="16,-78 16,-130 166,-130 166,-78 16,-78"/>
</g>
<!-- AdminComponent -->
<g id="node1" class="node">
<title>AdminComponent</title>
<polygon fill="#ffffb3" stroke="#000000" points="1609.2204,-122 1488.7796,-122 1488.7796,-86 1609.2204,-86 1609.2204,-122"/>
<text text-anchor="middle" x="1549" y="-99.8" font-family="Times,serif" font-size="14.00" fill="#000000">AdminComponent</text>
</g>
<!-- AdminModule -->
<g id="node4" class="node">
<title>AdminModule</title>
<polygon fill="#8dd3c7" stroke="#000000" points="783.4386,-187 780.4386,-191 759.4386,-191 756.4386,-187 684.5614,-187 684.5614,-151 783.4386,-151 783.4386,-187"/>
<text text-anchor="middle" x="734" y="-164.8" font-family="Times,serif" font-size="14.00" fill="#000000">AdminModule</text>
</g>
<!-- AdminComponent&#45;&gt;AdminModule -->
<g id="edge1" class="edge">
<title>AdminComponent&#45;&gt;AdminModule</title>
<path fill="none" stroke="#000000" d="M1549,-122.0908C1549,-145.1328 1549,-182 1549,-182 1549,-182 793.4504,-182 793.4504,-182"/>
<polygon fill="#000000" stroke="#000000" points="793.4504,-178.5001 783.4504,-182 793.4503,-185.5001 793.4504,-178.5001"/>
</g>
<!-- AddTheaterComponent -->
<g id="node2" class="node">
<title>AddTheaterComponent</title>
<polygon fill="#ffffb3" stroke="#000000" points="1471.1867,-122 1322.8133,-122 1322.8133,-86 1471.1867,-86 1471.1867,-122"/>
<text text-anchor="middle" x="1397" y="-99.8" font-family="Times,serif" font-size="14.00" fill="#000000">AddTheaterComponent</text>
</g>
<!-- AddTheaterComponent&#45;&gt;AdminModule -->
<g id="edge2" class="edge">
<title>AddTheaterComponent&#45;&gt;AdminModule</title>
<path fill="none" stroke="#000000" d="M1397,-122.2843C1397,-143.3211 1397,-175 1397,-175 1397,-175 793.2911,-175 793.2911,-175"/>
<polygon fill="#000000" stroke="#000000" points="793.2911,-171.5001 783.2911,-175 793.2911,-178.5001 793.2911,-171.5001"/>
</g>
<!-- ChangeShowComponent -->
<g id="node3" class="node">
<title>ChangeShowComponent</title>
<polygon fill="#ffffb3" stroke="#000000" points="1304.9874,-122 1149.0126,-122 1149.0126,-86 1304.9874,-86 1304.9874,-122"/>
<text text-anchor="middle" x="1227" y="-99.8" font-family="Times,serif" font-size="14.00" fill="#000000">ChangeShowComponent</text>
</g>
<!-- ChangeShowComponent&#45;&gt;AdminModule -->
<g id="edge3" class="edge">
<title>ChangeShowComponent&#45;&gt;AdminModule</title>
<path fill="none" stroke="#000000" d="M1227,-122.1061C1227,-141.3391 1227,-169 1227,-169 1227,-169 793.528,-169 793.528,-169"/>
<polygon fill="#000000" stroke="#000000" points="793.528,-165.5001 783.528,-169 793.5279,-172.5001 793.528,-165.5001"/>
</g>
<!-- CommonModule -->
<g id="node5" class="node">
<title>CommonModule</title>
<polygon fill="#8dd3c7" stroke="#000000" points="1124.6681,-122 1121.6681,-126 1100.6681,-126 1097.6681,-122 1013.3319,-122 1013.3319,-86 1124.6681,-86 1124.6681,-122"/>
<text text-anchor="middle" x="1069" y="-99.8" font-family="Times,serif" font-size="14.00" fill="#000000">CommonModule</text>
</g>
<!-- CommonModule&#45;&gt;AdminModule -->
<g id="edge4" class="edge">
<title>CommonModule&#45;&gt;AdminModule</title>
<path fill="none" stroke="#000000" d="M1069,-122.0225C1069,-139.3734 1069,-163 1069,-163 1069,-163 793.4304,-163 793.4304,-163"/>
<polygon fill="#000000" stroke="#000000" points="793.4304,-159.5001 783.4304,-163 793.4304,-166.5001 793.4304,-159.5001"/>
</g>
<!-- FormsModule -->
<g id="node6" class="node">
<title>FormsModule</title>
<polygon fill="#8dd3c7" stroke="#000000" points="995.8288,-122 992.8288,-126 971.8288,-126 968.8288,-122 900.1712,-122 900.1712,-86 995.8288,-86 995.8288,-122"/>
<text text-anchor="middle" x="948" y="-99.8" font-family="Times,serif" font-size="14.00" fill="#000000">FormsModule</text>
</g>
<!-- FormsModule&#45;&gt;AdminModule -->
<g id="edge5" class="edge">
<title>FormsModule&#45;&gt;AdminModule</title>
<path fill="none" stroke="#000000" d="M948,-122.2396C948,-137.5706 948,-157 948,-157 948,-157 793.3646,-157 793.3646,-157"/>
<polygon fill="#000000" stroke="#000000" points="793.3647,-153.5001 783.3646,-157 793.3646,-160.5001 793.3647,-153.5001"/>
</g>
<!-- ReactiveFormsModule -->
<g id="node7" class="node">
<title>ReactiveFormsModule</title>
<polygon fill="#8dd3c7" stroke="#000000" points="882.3047,-122 879.3047,-126 858.3047,-126 855.3047,-122 737.6953,-122 737.6953,-86 882.3047,-86 882.3047,-122"/>
<text text-anchor="middle" x="810" y="-99.8" font-family="Times,serif" font-size="14.00" fill="#000000">ReactiveFormsModule</text>
</g>
<!-- ReactiveFormsModule&#45;&gt;AdminModule -->
<g id="edge6" class="edge">
<title>ReactiveFormsModule&#45;&gt;AdminModule</title>
<path fill="none" stroke="#000000" d="M760.5333,-122.1061C760.5333,-122.1061 760.5333,-140.991 760.5333,-140.991"/>
<polygon fill="#000000" stroke="#000000" points="757.0334,-140.9909 760.5333,-150.991 764.0334,-140.991 757.0334,-140.9909"/>
</g>
<!-- FlexLayoutModule -->
<g id="node8" class="node">
<title>FlexLayoutModule</title>
<polygon fill="#8dd3c7" stroke="#000000" points="720.0954,-122 717.0954,-126 696.0954,-126 693.0954,-122 595.9046,-122 595.9046,-86 720.0954,-86 720.0954,-122"/>
<text text-anchor="middle" x="658" y="-99.8" font-family="Times,serif" font-size="14.00" fill="#000000">FlexLayoutModule</text>
</g>
<!-- FlexLayoutModule&#45;&gt;AdminModule -->
<g id="edge7" class="edge">
<title>FlexLayoutModule&#45;&gt;AdminModule</title>
<path fill="none" stroke="#000000" d="M702.4145,-122.1061C702.4145,-122.1061 702.4145,-140.991 702.4145,-140.991"/>
<polygon fill="#000000" stroke="#000000" points="698.9145,-140.9909 702.4145,-150.991 705.9145,-140.991 698.9145,-140.9909"/>
</g>
<!-- MatTabsModule -->
<g id="node9" class="node">
<title>MatTabsModule</title>
<polygon fill="#8dd3c7" stroke="#000000" points="577.8118,-122 574.8118,-126 553.8118,-126 550.8118,-122 468.1882,-122 468.1882,-86 577.8118,-86 577.8118,-122"/>
<text text-anchor="middle" x="523" y="-99.8" font-family="Times,serif" font-size="14.00" fill="#000000">MatTabsModule</text>
</g>
<!-- MatTabsModule&#45;&gt;AdminModule -->
<g id="edge8" class="edge">
<title>MatTabsModule&#45;&gt;AdminModule</title>
<path fill="none" stroke="#000000" d="M541.2186,-122.2396C541.2186,-137.5706 541.2186,-157 541.2186,-157 541.2186,-157 674.6043,-157 674.6043,-157"/>
<polygon fill="#000000" stroke="#000000" points="674.6044,-160.5001 684.6043,-157 674.6043,-153.5001 674.6044,-160.5001"/>
</g>
<!-- MatTabsModule&#45;&gt;AdminModule -->
<g id="edge9" class="edge">
<title>MatTabsModule&#45;&gt;AdminModule</title>
<path fill="none" stroke="#000000" d="M504.7814,-122.0225C504.7814,-139.3734 504.7814,-163 504.7814,-163 504.7814,-163 674.5452,-163 674.5452,-163"/>
<polygon fill="#000000" stroke="#000000" points="674.5452,-166.5001 684.5452,-163 674.5452,-159.5001 674.5452,-166.5001"/>
</g>
<!-- MaterialModule -->
<g id="node10" class="node">
<title>MaterialModule</title>
<polygon fill="#8dd3c7" stroke="#000000" points="450.4706,-122 447.4706,-126 426.4706,-126 423.4706,-122 343.5294,-122 343.5294,-86 450.4706,-86 450.4706,-122"/>
<text text-anchor="middle" x="397" y="-99.8" font-family="Times,serif" font-size="14.00" fill="#000000">MaterialModule</text>
</g>
<!-- MaterialModule&#45;&gt;AdminModule -->
<g id="edge10" class="edge">
<title>MaterialModule&#45;&gt;AdminModule</title>
<path fill="none" stroke="#000000" d="M397,-122.1061C397,-141.3391 397,-169 397,-169 397,-169 674.6364,-169 674.6364,-169"/>
<polygon fill="#000000" stroke="#000000" points="674.6364,-172.5001 684.6364,-169 674.6364,-165.5001 674.6364,-172.5001"/>
</g>
<!-- AdminRoutingModule -->
<g id="node11" class="node">
<title>AdminRoutingModule</title>
<polygon fill="#8dd3c7" stroke="#000000" points="325.5561,-122 322.5561,-126 301.5561,-126 298.5561,-122 182.4439,-122 182.4439,-86 325.5561,-86 325.5561,-122"/>
<text text-anchor="middle" x="254" y="-99.8" font-family="Times,serif" font-size="14.00" fill="#000000">AdminRoutingModule</text>
</g>
<!-- AdminRoutingModule&#45;&gt;AdminModule -->
<g id="edge11" class="edge">
<title>AdminRoutingModule&#45;&gt;AdminModule</title>
<path fill="none" stroke="#000000" d="M254,-122.2843C254,-143.3211 254,-175 254,-175 254,-175 674.4395,-175 674.4395,-175"/>
<polygon fill="#000000" stroke="#000000" points="674.4395,-178.5001 684.4395,-175 674.4394,-171.5001 674.4395,-178.5001"/>
</g>
<!-- AdminService -->
<g id="node12" class="node">
<title>AdminService</title>
<ellipse fill="#fdb462" stroke="#000000" cx="91" cy="-104" rx="66.6325" ry="18"/>
<text text-anchor="middle" x="91" y="-99.8" font-family="Times,serif" font-size="14.00" fill="#000000">AdminService</text>
</g>
<!-- AdminService&#45;&gt;AdminModule -->
<g id="edge12" class="edge">
<title>AdminService&#45;&gt;AdminModule</title>
<path fill="none" stroke="#000000" d="M91,-122.0908C91,-145.1328 91,-182 91,-182 91,-182 674.6125,-182 674.6125,-182"/>
<polygon fill="#000000" stroke="#000000" points="674.6126,-185.5001 684.6125,-182 674.6125,-178.5001 674.6126,-185.5001"/>
</g>
</g>
</svg>
