<?xml version="1.0" encoding="UTF-8" standalone="no"?>
<!DOCTYPE svg PUBLIC "-//W3C//DTD SVG 1.1//EN"
 "http://www.w3.org/Graphics/SVG/1.1/DTD/svg11.dtd">
<!-- Generated by graphviz version 2.40.1 (20161225.0304)
 -->
<!-- Title: dependencies Pages: 1 -->
<svg width="1447pt" height="211pt"
 viewBox="0.00 0.00 1447.00 211.00" xmlns="http://www.w3.org/2000/svg" xmlns:xlink="http://www.w3.org/1999/xlink">
<g id="graph0" class="graph" transform="scale(1 1) rotate(0) translate(4 207)">
<title>dependencies</title>
<polygon fill="#ffffff" stroke="transparent" points="-4,4 -4,-207 1443,-207 1443,4 -4,4"/>
<text text-anchor="start" x="698.5091" y="-42.4" font-family="sans-serif" font-weight="bold" font-size="14.00" fill="#000000">Legend</text>
<polygon fill="#ffffb3" stroke="transparent" points="485.5,-10 485.5,-30 505.5,-30 505.5,-10 485.5,-10"/>
<text text-anchor="start" x="509.129" y="-15.4" font-family="sans-serif" font-size="14.00" fill="#000000"> &#160;Declarations</text>
<polygon fill="#8dd3c7" stroke="transparent" points="598.5,-10 598.5,-30 618.5,-30 618.5,-10 598.5,-10"/>
<text text-anchor="start" x="622.2251" y="-15.4" font-family="sans-serif" font-size="14.00" fill="#000000"> &#160;Module</text>
<polygon fill="#80b1d3" stroke="transparent" points="684.5,-10 684.5,-30 704.5,-30 704.5,-10 684.5,-10"/>
<text text-anchor="start" x="708.2812" y="-15.4" font-family="sans-serif" font-size="14.00" fill="#000000"> &#160;Bootstrap</text>
<polygon fill="#fdb462" stroke="transparent" points="781.5,-10 781.5,-30 801.5,-30 801.5,-10 781.5,-10"/>
<text text-anchor="start" x="805.1732" y="-15.4" font-family="sans-serif" font-size="14.00" fill="#000000"> &#160;Providers</text>
<polygon fill="#fb8072" stroke="transparent" points="877.5,-10 877.5,-30 897.5,-30 897.5,-10 877.5,-10"/>
<text text-anchor="start" x="901.2258" y="-15.4" font-family="sans-serif" font-size="14.00" fill="#000000"> &#160;Exports</text>
<g id="clust1" class="cluster">
<title>cluster_HomeModule</title>
<polygon fill="none" stroke="#000000" stroke-dasharray="1,5" points="8,-70 8,-195 1431,-195 1431,-70 8,-70"/>
</g>
<g id="clust2" class="cluster">
<title>cluster_HomeModule_declarations</title>
<polygon fill="none" stroke="#000000" points="968,-78 968,-130 1423,-130 1423,-78 968,-78"/>
</g>
<g id="clust6" class="cluster">
<title>cluster_HomeModule_imports</title>
<polygon fill="none" stroke="#000000" points="16,-78 16,-130 960,-130 960,-78 16,-78"/>
</g>
<!-- HomePageComponent -->
<g id="node1" class="node">
<title>HomePageComponent</title>
<polygon fill="#ffffb3" stroke="#000000" points="1415.2562,-122 1272.7438,-122 1272.7438,-86 1415.2562,-86 1415.2562,-122"/>
<text text-anchor="middle" x="1344" y="-99.8" font-family="Times,serif" font-size="14.00" fill="#000000">HomePageComponent</text>
</g>
<!-- HomeModule -->
<g id="node4" class="node">
<title>HomeModule</title>
<polygon fill="#8dd3c7" stroke="#000000" points="752.7619,-187 749.7619,-191 728.7619,-191 725.7619,-187 659.2381,-187 659.2381,-151 752.7619,-151 752.7619,-187"/>
<text text-anchor="middle" x="706" y="-164.8" font-family="Times,serif" font-size="14.00" fill="#000000">HomeModule</text>
</g>
<!-- HomePageComponent&#45;&gt;HomeModule -->
<g id="edge1" class="edge">
<title>HomePageComponent&#45;&gt;HomeModule</title>
<path fill="none" stroke="#000000" d="M1344,-122.0109C1344,-144.4852 1344,-180 1344,-180 1344,-180 762.9137,-180 762.9137,-180"/>
<polygon fill="#000000" stroke="#000000" points="762.9137,-176.5001 752.9137,-180 762.9136,-183.5001 762.9137,-176.5001"/>
</g>
<!-- HomeComponent -->
<g id="node2" class="node">
<title>HomeComponent</title>
<polygon fill="#ffffb3" stroke="#000000" points="1254.5451,-122 1139.4549,-122 1139.4549,-86 1254.5451,-86 1254.5451,-122"/>
<text text-anchor="middle" x="1197" y="-99.8" font-family="Times,serif" font-size="14.00" fill="#000000">HomeComponent</text>
</g>
<!-- HomeComponent&#45;&gt;HomeModule -->
<g id="edge2" class="edge">
<title>HomeComponent&#45;&gt;HomeModule</title>
<path fill="none" stroke="#000000" d="M1197,-122.1289C1197,-142.5724 1197,-173 1197,-173 1197,-173 763.0791,-173 763.0791,-173"/>
<polygon fill="#000000" stroke="#000000" points="763.0792,-169.5001 753.0791,-173 763.0791,-176.5001 763.0792,-169.5001"/>
</g>
<!-- MovieCardComponent -->
<g id="node3" class="node">
<title>MovieCardComponent</title>
<polygon fill="#ffffb3" stroke="#000000" points="1121.594,-122 976.406,-122 976.406,-86 1121.594,-86 1121.594,-122"/>
<text text-anchor="middle" x="1049" y="-99.8" font-family="Times,serif" font-size="14.00" fill="#000000">MovieCardComponent</text>
</g>
<!-- MovieCardComponent&#45;&gt;HomeModule -->
<g id="edge3" class="edge">
<title>MovieCardComponent&#45;&gt;HomeModule</title>
<path fill="none" stroke="#000000" d="M1049,-122.2667C1049,-140.5552 1049,-166 1049,-166 1049,-166 762.9735,-166 762.9735,-166"/>
<polygon fill="#000000" stroke="#000000" points="762.9735,-162.5001 752.9735,-166 762.9735,-169.5001 762.9735,-162.5001"/>
</g>
<!-- CommonModule -->
<g id="node5" class="node">
<title>CommonModule</title>
<polygon fill="#8dd3c7" stroke="#000000" points="951.6681,-122 948.6681,-126 927.6681,-126 924.6681,-122 840.3319,-122 840.3319,-86 951.6681,-86 951.6681,-122"/>
<text text-anchor="middle" x="896" y="-99.8" font-family="Times,serif" font-size="14.00" fill="#000000">CommonModule</text>
</g>
<!-- CommonModule&#45;&gt;HomeModule -->
<g id="edge4" class="edge">
<title>CommonModule&#45;&gt;HomeModule</title>
<path fill="none" stroke="#000000" d="M896,-122.0091C896,-138.0494 896,-159 896,-159 896,-159 762.9663,-159 762.9663,-159"/>
<polygon fill="#000000" stroke="#000000" points="762.9663,-155.5001 752.9663,-159 762.9663,-162.5001 762.9663,-155.5001"/>
</g>
<!-- FormsModule -->
<g id="node6" class="node">
<title>FormsModule</title>
<polygon fill="#8dd3c7" stroke="#000000" points="822.8288,-122 819.8288,-126 798.8288,-126 795.8288,-122 727.1712,-122 727.1712,-86 822.8288,-86 822.8288,-122"/>
<text text-anchor="middle" x="775" y="-99.8" font-family="Times,serif" font-size="14.00" fill="#000000">FormsModule</text>
</g>
<!-- FormsModule&#45;&gt;HomeModule -->
<g id="edge5" class="edge">
<title>FormsModule&#45;&gt;HomeModule</title>
<path fill="none" stroke="#000000" d="M740.1084,-122.1061C740.1084,-122.1061 740.1084,-140.991 740.1084,-140.991"/>
<polygon fill="#000000" stroke="#000000" points="736.6084,-140.9909 740.1084,-150.991 743.6084,-140.991 736.6084,-140.9909"/>
</g>
<!-- ReactiveFormsModule -->
<g id="node7" class="node">
<title>ReactiveFormsModule</title>
<polygon fill="#8dd3c7" stroke="#000000" points="709.3047,-122 706.3047,-126 685.3047,-126 682.3047,-122 564.6953,-122 564.6953,-86 709.3047,-86 709.3047,-122"/>
<text text-anchor="middle" x="637" y="-99.8" font-family="Times,serif" font-size="14.00" fill="#000000">ReactiveFormsModule</text>
</g>
<!-- ReactiveFormsModule&#45;&gt;HomeModule -->
<g id="edge6" class="edge">
<title>ReactiveFormsModule&#45;&gt;HomeModule</title>
<path fill="none" stroke="#000000" d="M684.1357,-122.1061C684.1357,-122.1061 684.1357,-140.991 684.1357,-140.991"/>
<polygon fill="#000000" stroke="#000000" points="680.6358,-140.9909 684.1357,-150.991 687.6358,-140.991 680.6358,-140.9909"/>
</g>
<!-- HomeRoutingModule -->
<g id="node8" class="node">
<title>HomeRoutingModule</title>
<polygon fill="#8dd3c7" stroke="#000000" points="546.3795,-122 543.3795,-126 522.3795,-126 519.3795,-122 407.6205,-122 407.6205,-86 546.3795,-86 546.3795,-122"/>
<text text-anchor="middle" x="477" y="-99.8" font-family="Times,serif" font-size="14.00" fill="#000000">HomeRoutingModule</text>
</g>
<!-- HomeRoutingModule&#45;&gt;HomeModule -->
<g id="edge7" class="edge">
<title>HomeRoutingModule&#45;&gt;HomeModule</title>
<path fill="none" stroke="#000000" d="M477,-122.0091C477,-138.0494 477,-159 477,-159 477,-159 649.1058,-159 649.1058,-159"/>
<polygon fill="#000000" stroke="#000000" points="649.1059,-162.5001 659.1058,-159 649.1058,-155.5001 649.1059,-162.5001"/>
</g>
<!-- MaterialModule -->
<g id="node9" class="node">
<title>MaterialModule</title>
<polygon fill="#8dd3c7" stroke="#000000" points="389.4706,-122 386.4706,-126 365.4706,-126 362.4706,-122 282.5294,-122 282.5294,-86 389.4706,-86 389.4706,-122"/>
<text text-anchor="middle" x="336" y="-99.8" font-family="Times,serif" font-size="14.00" fill="#000000">MaterialModule</text>
</g>
<!-- MaterialModule&#45;&gt;HomeModule -->
<g id="edge8" class="edge">
<title>MaterialModule&#45;&gt;HomeModule</title>
<path fill="none" stroke="#000000" d="M336,-122.2667C336,-140.5552 336,-166 336,-166 336,-166 649.1392,-166 649.1392,-166"/>
<polygon fill="#000000" stroke="#000000" points="649.1393,-169.5001 659.1392,-166 649.1392,-162.5001 649.1393,-169.5001"/>
</g>
<!-- SharedModule -->
<g id="node10" class="node">
<title>SharedModule</title>
<polygon fill="#8dd3c7" stroke="#000000" points="264.4231,-122 261.4231,-126 240.4231,-126 237.4231,-122 165.5769,-122 165.5769,-86 264.4231,-86 264.4231,-122"/>
<text text-anchor="middle" x="215" y="-99.8" font-family="Times,serif" font-size="14.00" fill="#000000">SharedModule</text>
</g>
<!-- SharedModule&#45;&gt;HomeModule -->
<g id="edge9" class="edge">
<title>SharedModule&#45;&gt;HomeModule</title>
<path fill="none" stroke="#000000" d="M215,-122.1289C215,-142.5724 215,-173 215,-173 215,-173 648.9209,-173 648.9209,-173"/>
<polygon fill="#000000" stroke="#000000" points="648.9209,-176.5001 658.9209,-173 648.9208,-169.5001 648.9209,-176.5001"/>
</g>
<!-- FlexLayoutModule -->
<g id="node11" class="node">
<title>FlexLayoutModule</title>
<polygon fill="#8dd3c7" stroke="#000000" points="148.0954,-122 145.0954,-126 124.0954,-126 121.0954,-122 23.9046,-122 23.9046,-86 148.0954,-86 148.0954,-122"/>
<text text-anchor="middle" x="86" y="-99.8" font-family="Times,serif" font-size="14.00" fill="#000000">FlexLayoutModule</text>
</g>
<!-- FlexLayoutModule&#45;&gt;HomeModule -->
<g id="edge10" class="edge">
<title>FlexLayoutModule&#45;&gt;HomeModule</title>
<path fill="none" stroke="#000000" d="M86,-122.0109C86,-144.4852 86,-180 86,-180 86,-180 649.1451,-180 649.1451,-180"/>
<polygon fill="#000000" stroke="#000000" points="649.1451,-183.5001 659.1451,-180 649.145,-176.5001 649.1451,-183.5001"/>
</g>
</g>
</svg>
