<?xml version="1.0" encoding="UTF-8" standalone="no"?>
<!DOCTYPE svg PUBLIC "-//W3C//DTD SVG 1.1//EN"
 "http://www.w3.org/Graphics/SVG/1.1/DTD/svg11.dtd">
<!-- Generated by graphviz version 2.40.1 (20161225.0304)
 -->
<!-- Title: dependencies Pages: 1 -->
<svg width="3870pt" height="284pt"
 viewBox="0.00 0.00 3870.00 284.00" xmlns="http://www.w3.org/2000/svg" xmlns:xlink="http://www.w3.org/1999/xlink">
<g id="graph0" class="graph" transform="scale(1 1) rotate(0) translate(4 280)">
<title>dependencies</title>
<polygon fill="#ffffff" stroke="transparent" points="-4,4 -4,-280 3866,-280 3866,4 -4,4"/>
<text text-anchor="start" x="1910.0091" y="-42.4" font-family="sans-serif" font-weight="bold" font-size="14.00" fill="#000000">Legend</text>
<polygon fill="#ffffb3" stroke="transparent" points="1697,-10 1697,-30 1717,-30 1717,-10 1697,-10"/>
<text text-anchor="start" x="1720.629" y="-15.4" font-family="sans-serif" font-size="14.00" fill="#000000"> &#160;Declarations</text>
<polygon fill="#8dd3c7" stroke="transparent" points="1810,-10 1810,-30 1830,-30 1830,-10 1810,-10"/>
<text text-anchor="start" x="1833.7251" y="-15.4" font-family="sans-serif" font-size="14.00" fill="#000000"> &#160;Module</text>
<polygon fill="#80b1d3" stroke="transparent" points="1896,-10 1896,-30 1916,-30 1916,-10 1896,-10"/>
<text text-anchor="start" x="1919.7812" y="-15.4" font-family="sans-serif" font-size="14.00" fill="#000000"> &#160;Bootstrap</text>
<polygon fill="#fdb462" stroke="transparent" points="1993,-10 1993,-30 2013,-30 2013,-10 1993,-10"/>
<text text-anchor="start" x="2016.6732" y="-15.4" font-family="sans-serif" font-size="14.00" fill="#000000"> &#160;Providers</text>
<polygon fill="#fb8072" stroke="transparent" points="2089,-10 2089,-30 2109,-30 2109,-10 2089,-10"/>
<text text-anchor="start" x="2112.7258" y="-15.4" font-family="sans-serif" font-size="14.00" fill="#000000"> &#160;Exports</text>
<g id="clust1" class="cluster">
<title>cluster_AppModule</title>
<polygon fill="none" stroke="#000000" stroke-dasharray="1,5" points="8,-70 8,-268 3854,-268 3854,-70 8,-70"/>
</g>
<g id="clust2" class="cluster">
<title>cluster_AppModule_declarations</title>
<polygon fill="none" stroke="#000000" points="3587,-78 3587,-130 3846,-130 3846,-78 3587,-78"/>
</g>
<g id="clust5" class="cluster">
<title>cluster_AppModule_imports</title>
<polygon fill="none" stroke="#000000" points="1421,-78 1421,-130 3579,-130 3579,-78 1421,-78"/>
</g>
<g id="clust7" class="cluster">
<title>cluster_AppModule_bootstrap</title>
<polygon fill="none" stroke="#000000" points="2298,-208 2298,-260 2422,-260 2422,-208 2298,-208"/>
</g>
<g id="clust8" class="cluster">
<title>cluster_AppModule_providers</title>
<polygon fill="none" stroke="#000000" points="16,-78 16,-130 1413,-130 1413,-78 16,-78"/>
</g>
<!-- AppComponent -->
<g id="node1" class="node">
<title>AppComponent</title>
<polygon fill="#ffffb3" stroke="#000000" points="3837.9399,-122 3732.0601,-122 3732.0601,-86 3837.9399,-86 3837.9399,-122"/>
<text text-anchor="middle" x="3785" y="-99.8" font-family="Times,serif" font-size="14.00" fill="#000000">AppComponent</text>
</g>
<!-- AppModule -->
<g id="node3" class="node">
<title>AppModule</title>
<polygon fill="#8dd3c7" stroke="#000000" points="2401.6571,-187 2398.6571,-191 2377.6571,-191 2374.6571,-187 2318.3429,-187 2318.3429,-151 2401.6571,-151 2401.6571,-187"/>
<text text-anchor="middle" x="2360" y="-164.8" font-family="Times,serif" font-size="14.00" fill="#000000">AppModule</text>
</g>
<!-- AppComponent&#45;&gt;AppModule -->
<g id="edge1" class="edge">
<title>AppComponent&#45;&gt;AppModule</title>
<path fill="none" stroke="#000000" d="M3785,-122.1532C3785,-145.7566 3785,-184 3785,-184 3785,-184 2411.8758,-184 2411.8758,-184"/>
<polygon fill="#000000" stroke="#000000" points="2411.8758,-180.5001 2401.8758,-184 2411.8758,-187.5001 2411.8758,-180.5001"/>
</g>
<!-- ProfileComponent -->
<g id="node2" class="node">
<title>ProfileComponent</title>
<polygon fill="#ffffb3" stroke="#000000" points="3714.9328,-122 3595.0672,-122 3595.0672,-86 3714.9328,-86 3714.9328,-122"/>
<text text-anchor="middle" x="3655" y="-99.8" font-family="Times,serif" font-size="14.00" fill="#000000">ProfileComponent</text>
</g>
<!-- ProfileComponent&#45;&gt;AppModule -->
<g id="edge2" class="edge">
<title>ProfileComponent&#45;&gt;AppModule</title>
<path fill="none" stroke="#000000" d="M3655,-122.0109C3655,-144.4852 3655,-180 3655,-180 3655,-180 2411.9848,-180 2411.9848,-180"/>
<polygon fill="#000000" stroke="#000000" points="2411.9848,-176.5001 2401.9848,-180 2411.9847,-183.5001 2411.9848,-176.5001"/>
</g>
<!-- AppComponent  -->
<g id="node18" class="node">
<title>AppComponent </title>
<polygon fill="#80b1d3" stroke="#000000" points="2414.439,-252 2305.561,-252 2305.561,-216 2414.439,-216 2414.439,-252"/>
<text text-anchor="middle" x="2360" y="-229.8" font-family="Times,serif" font-size="14.00" fill="#000000">AppComponent </text>
</g>
<!-- AppModule&#45;&gt;AppComponent  -->
<g id="edge18" class="edge">
<title>AppModule&#45;&gt;AppComponent </title>
<path fill="none" stroke="#000000" stroke-dasharray="1,5" d="M2360,-187.1061C2360,-187.1061 2360,-205.991 2360,-205.991"/>
<polygon fill="#000000" stroke="#000000" points="2356.5001,-205.9909 2360,-215.991 2363.5001,-205.991 2356.5001,-205.9909"/>
</g>
<!-- BrowserModule -->
<g id="node4" class="node">
<title>BrowserModule</title>
<polygon fill="#8dd3c7" stroke="#000000" points="3571.4734,-122 3568.4734,-126 3547.4734,-126 3544.4734,-122 3464.5266,-122 3464.5266,-86 3571.4734,-86 3571.4734,-122"/>
<text text-anchor="middle" x="3518" y="-99.8" font-family="Times,serif" font-size="14.00" fill="#000000">BrowserModule</text>
</g>
<!-- BrowserModule&#45;&gt;AppModule -->
<g id="edge3" class="edge">
<title>BrowserModule&#45;&gt;AppModule</title>
<path fill="none" stroke="#000000" d="M3518,-122.0449C3518,-143.6623 3518,-177 3518,-177 3518,-177 2411.898,-177 2411.898,-177"/>
<polygon fill="#000000" stroke="#000000" points="2411.898,-173.5001 2401.898,-177 2411.8979,-180.5001 2411.898,-173.5001"/>
</g>
<!-- FormsModule -->
<g id="node5" class="node">
<title>FormsModule</title>
<polygon fill="#8dd3c7" stroke="#000000" points="3446.8288,-122 3443.8288,-126 3422.8288,-126 3419.8288,-122 3351.1712,-122 3351.1712,-86 3446.8288,-86 3446.8288,-122"/>
<text text-anchor="middle" x="3399" y="-99.8" font-family="Times,serif" font-size="14.00" fill="#000000">FormsModule</text>
</g>
<!-- FormsModule&#45;&gt;AppModule -->
<g id="edge4" class="edge">
<title>FormsModule&#45;&gt;AppModule</title>
<path fill="none" stroke="#000000" d="M3399,-122.1289C3399,-142.5724 3399,-173 3399,-173 3399,-173 2411.6935,-173 2411.6935,-173"/>
<polygon fill="#000000" stroke="#000000" points="2411.6935,-169.5001 2401.6935,-173 2411.6934,-176.5001 2411.6935,-169.5001"/>
</g>
<!-- ReactiveFormsModule -->
<g id="node6" class="node">
<title>ReactiveFormsModule</title>
<polygon fill="#8dd3c7" stroke="#000000" points="3333.3047,-122 3330.3047,-126 3309.3047,-126 3306.3047,-122 3188.6953,-122 3188.6953,-86 3333.3047,-86 3333.3047,-122"/>
<text text-anchor="middle" x="3261" y="-99.8" font-family="Times,serif" font-size="14.00" fill="#000000">ReactiveFormsModule</text>
</g>
<!-- ReactiveFormsModule&#45;&gt;AppModule -->
<g id="edge5" class="edge">
<title>ReactiveFormsModule&#45;&gt;AppModule</title>
<path fill="none" stroke="#000000" d="M3261,-122.1061C3261,-141.3391 3261,-169 3261,-169 3261,-169 2411.9489,-169 2411.9489,-169"/>
<polygon fill="#000000" stroke="#000000" points="2411.9489,-165.5001 2401.9489,-169 2411.9488,-172.5001 2411.9489,-165.5001"/>
</g>
<!-- AppRoutingModule -->
<g id="node7" class="node">
<title>AppRoutingModule</title>
<polygon fill="#8dd3c7" stroke="#000000" points="3170.2744,-122 3167.2744,-126 3146.2744,-126 3143.2744,-122 3041.7256,-122 3041.7256,-86 3170.2744,-86 3170.2744,-122"/>
<text text-anchor="middle" x="3106" y="-99.8" font-family="Times,serif" font-size="14.00" fill="#000000">AppRoutingModule</text>
</g>
<!-- AppRoutingModule&#45;&gt;AppModule -->
<g id="edge6" class="edge">
<title>AppRoutingModule&#45;&gt;AppModule</title>
<path fill="none" stroke="#000000" d="M3106,-122.2667C3106,-140.5552 3106,-166 3106,-166 3106,-166 2411.7067,-166 2411.7067,-166"/>
<polygon fill="#000000" stroke="#000000" points="2411.7067,-162.5001 2401.7067,-166 2411.7067,-169.5001 2411.7067,-162.5001"/>
</g>
<!-- BrowserAnimationsModule -->
<g id="node8" class="node">
<title>BrowserAnimationsModule</title>
<polygon fill="#8dd3c7" stroke="#000000" points="3023.3019,-122 3020.3019,-126 2999.3019,-126 2996.3019,-122 2850.6981,-122 2850.6981,-86 3023.3019,-86 3023.3019,-122"/>
<text text-anchor="middle" x="2937" y="-99.8" font-family="Times,serif" font-size="14.00" fill="#000000">BrowserAnimationsModule</text>
</g>
<!-- BrowserAnimationsModule&#45;&gt;AppModule -->
<g id="edge7" class="edge">
<title>BrowserAnimationsModule&#45;&gt;AppModule</title>
<path fill="none" stroke="#000000" d="M2937,-122.0336C2937,-139.0597 2937,-162 2937,-162 2937,-162 2411.9612,-162 2411.9612,-162"/>
<polygon fill="#000000" stroke="#000000" points="2411.9612,-158.5001 2401.9612,-162 2411.9612,-165.5001 2411.9612,-158.5001"/>
</g>
<!-- FlexLayoutModule -->
<g id="node9" class="node">
<title>FlexLayoutModule</title>
<polygon fill="#8dd3c7" stroke="#000000" points="2833.0954,-122 2830.0954,-126 2809.0954,-126 2806.0954,-122 2708.9046,-122 2708.9046,-86 2833.0954,-86 2833.0954,-122"/>
<text text-anchor="middle" x="2771" y="-99.8" font-family="Times,serif" font-size="14.00" fill="#000000">FlexLayoutModule</text>
</g>
<!-- FlexLayoutModule&#45;&gt;AppModule -->
<g id="edge8" class="edge">
<title>FlexLayoutModule&#45;&gt;AppModule</title>
<path fill="none" stroke="#000000" d="M2771,-122.0091C2771,-138.0494 2771,-159 2771,-159 2771,-159 2411.6707,-159 2411.6707,-159"/>
<polygon fill="#000000" stroke="#000000" points="2411.6707,-155.5001 2401.6707,-159 2411.6706,-162.5001 2411.6707,-155.5001"/>
</g>
<!-- HttpClientModule -->
<g id="node10" class="node">
<title>HttpClientModule</title>
<polygon fill="#8dd3c7" stroke="#000000" points="2691.1611,-122 2688.1611,-126 2667.1611,-126 2664.1611,-122 2572.8389,-122 2572.8389,-86 2691.1611,-86 2691.1611,-122"/>
<text text-anchor="middle" x="2632" y="-99.8" font-family="Times,serif" font-size="14.00" fill="#000000">HttpClientModule</text>
</g>
<!-- HttpClientModule&#45;&gt;AppModule -->
<g id="edge9" class="edge">
<title>HttpClientModule&#45;&gt;AppModule</title>
<path fill="none" stroke="#000000" d="M2632,-122.1243C2632,-136.7832 2632,-155 2632,-155 2632,-155 2411.9039,-155 2411.9039,-155"/>
<polygon fill="#000000" stroke="#000000" points="2411.9039,-151.5001 2401.9039,-155 2411.9039,-158.5001 2411.9039,-151.5001"/>
</g>
<!-- StoreModule.forRoot(args) -->
<g id="node11" class="node">
<title>StoreModule.forRoot(args)</title>
<polygon fill="#8dd3c7" stroke="#000000" points="2554.2877,-122 2551.2877,-126 2530.2877,-126 2527.2877,-122 2385.7123,-122 2385.7123,-86 2554.2877,-86 2554.2877,-122"/>
<text text-anchor="middle" x="2470" y="-99.8" font-family="Times,serif" font-size="14.00" fill="#000000">StoreModule.forRoot(args)</text>
</g>
<!-- StoreModule.forRoot(args)&#45;&gt;AppModule -->
<g id="edge10" class="edge">
<title>StoreModule.forRoot(args)&#45;&gt;AppModule</title>
<path fill="none" stroke="#000000" d="M2393.7172,-122.1061C2393.7172,-122.1061 2393.7172,-140.991 2393.7172,-140.991"/>
<polygon fill="#000000" stroke="#000000" points="2390.2173,-140.9909 2393.7172,-150.991 2397.2173,-140.991 2390.2173,-140.9909"/>
</g>
<!-- StoreDevtoolsModule.instrument(args) -->
<g id="node12" class="node">
<title>StoreDevtoolsModule.instrument(args)</title>
<polygon fill="#8dd3c7" stroke="#000000" points="2367.6686,-122 2364.6686,-126 2343.6686,-126 2340.6686,-122 2132.3314,-122 2132.3314,-86 2367.6686,-86 2367.6686,-122"/>
<text text-anchor="middle" x="2250" y="-99.8" font-family="Times,serif" font-size="14.00" fill="#000000">StoreDevtoolsModule.instrument(args)</text>
</g>
<!-- StoreDevtoolsModule.instrument(args)&#45;&gt;AppModule -->
<g id="edge11" class="edge">
<title>StoreDevtoolsModule.instrument(args)&#45;&gt;AppModule</title>
<path fill="none" stroke="#000000" d="M2343.003,-122.1061C2343.003,-122.1061 2343.003,-140.991 2343.003,-140.991"/>
<polygon fill="#000000" stroke="#000000" points="2339.5031,-140.9909 2343.003,-150.991 2346.5031,-140.991 2339.5031,-140.9909"/>
</g>
<!-- ServiceWorkerModule.register(args) -->
<g id="node13" class="node">
<title>ServiceWorkerModule.register(args)</title>
<polygon fill="#8dd3c7" stroke="#000000" points="2114.3954,-122 2111.3954,-126 2090.3954,-126 2087.3954,-122 1891.6046,-122 1891.6046,-86 2114.3954,-86 2114.3954,-122"/>
<text text-anchor="middle" x="2003" y="-99.8" font-family="Times,serif" font-size="14.00" fill="#000000">ServiceWorkerModule.register(args)</text>
</g>
<!-- ServiceWorkerModule.register(args)&#45;&gt;AppModule -->
<g id="edge12" class="edge">
<title>ServiceWorkerModule.register(args)&#45;&gt;AppModule</title>
<path fill="none" stroke="#000000" d="M1965.9342,-122.0091C1965.9342,-138.0494 1965.9342,-159 1965.9342,-159 1965.9342,-159 2308.2011,-159 2308.2011,-159"/>
<polygon fill="#000000" stroke="#000000" points="2308.2012,-162.5001 2318.2011,-159 2308.2011,-155.5001 2308.2012,-162.5001"/>
</g>
<!-- ServiceWorkerModule.register(args)&#45;&gt;AppModule -->
<g id="edge17" class="edge">
<title>ServiceWorkerModule.register(args)&#45;&gt;AppModule</title>
<path fill="none" stroke="#000000" d="M2040.0658,-122.1243C2040.0658,-136.7832 2040.0658,-155 2040.0658,-155 2040.0658,-155 2308.1742,-155 2308.1742,-155"/>
<polygon fill="#000000" stroke="#000000" points="2308.1742,-158.5001 2318.1742,-155 2308.1742,-151.5001 2308.1742,-158.5001"/>
</g>
<!-- MaterialModule -->
<g id="node14" class="node">
<title>MaterialModule</title>
<polygon fill="#8dd3c7" stroke="#000000" points="1873.4706,-122 1870.4706,-126 1849.4706,-126 1846.4706,-122 1766.5294,-122 1766.5294,-86 1873.4706,-86 1873.4706,-122"/>
<text text-anchor="middle" x="1820" y="-99.8" font-family="Times,serif" font-size="14.00" fill="#000000">MaterialModule</text>
</g>
<!-- MaterialModule&#45;&gt;AppModule -->
<g id="edge13" class="edge">
<title>MaterialModule&#45;&gt;AppModule</title>
<path fill="none" stroke="#000000" d="M1820,-122.0336C1820,-139.0597 1820,-162 1820,-162 1820,-162 2308.0764,-162 2308.0764,-162"/>
<polygon fill="#000000" stroke="#000000" points="2308.0765,-165.5001 2318.0764,-162 2308.0764,-158.5001 2308.0765,-165.5001"/>
</g>
<!-- CoreModule -->
<g id="node15" class="node">
<title>CoreModule</title>
<polygon fill="#8dd3c7" stroke="#000000" points="1748.2619,-122 1745.2619,-126 1724.2619,-126 1721.2619,-122 1661.7381,-122 1661.7381,-86 1748.2619,-86 1748.2619,-122"/>
<text text-anchor="middle" x="1705" y="-99.8" font-family="Times,serif" font-size="14.00" fill="#000000">CoreModule</text>
</g>
<!-- CoreModule&#45;&gt;AppModule -->
<g id="edge14" class="edge">
<title>CoreModule&#45;&gt;AppModule</title>
<path fill="none" stroke="#000000" d="M1705,-122.2667C1705,-140.5552 1705,-166 1705,-166 1705,-166 2308.0304,-166 2308.0304,-166"/>
<polygon fill="#000000" stroke="#000000" points="2308.0304,-169.5001 2318.0304,-166 2308.0304,-162.5001 2308.0304,-169.5001"/>
</g>
<!-- AdminModule -->
<g id="node16" class="node">
<title>AdminModule</title>
<polygon fill="#8dd3c7" stroke="#000000" points="1643.4386,-122 1640.4386,-126 1619.4386,-126 1616.4386,-122 1544.5614,-122 1544.5614,-86 1643.4386,-86 1643.4386,-122"/>
<text text-anchor="middle" x="1594" y="-99.8" font-family="Times,serif" font-size="14.00" fill="#000000">AdminModule</text>
</g>
<!-- AdminModule&#45;&gt;AppModule -->
<g id="edge15" class="edge">
<title>AdminModule&#45;&gt;AppModule</title>
<path fill="none" stroke="#000000" d="M1594,-122.1061C1594,-141.3391 1594,-169 1594,-169 1594,-169 2308.2725,-169 2308.2725,-169"/>
<polygon fill="#000000" stroke="#000000" points="2308.2726,-172.5001 2318.2725,-169 2308.2725,-165.5001 2308.2726,-172.5001"/>
</g>
<!-- SharedModule -->
<g id="node17" class="node">
<title>SharedModule</title>
<polygon fill="#8dd3c7" stroke="#000000" points="1527.4231,-122 1524.4231,-126 1503.4231,-126 1500.4231,-122 1428.5769,-122 1428.5769,-86 1527.4231,-86 1527.4231,-122"/>
<text text-anchor="middle" x="1478" y="-99.8" font-family="Times,serif" font-size="14.00" fill="#000000">SharedModule</text>
</g>
<!-- SharedModule&#45;&gt;AppModule -->
<g id="edge16" class="edge">
<title>SharedModule&#45;&gt;AppModule</title>
<path fill="none" stroke="#000000" d="M1478,-122.1289C1478,-142.5724 1478,-173 1478,-173 1478,-173 2308.0527,-173 2308.0527,-173"/>
<polygon fill="#000000" stroke="#000000" points="2308.0527,-176.5001 2318.0527,-173 2308.0526,-169.5001 2308.0527,-176.5001"/>
</g>
<!-- LogService -->
<g id="node19" class="node">
<title>LogService</title>
<ellipse fill="#fdb462" stroke="#000000" cx="1349" cy="-104" rx="55.5966" ry="18"/>
<text text-anchor="middle" x="1349" y="-99.8" font-family="Times,serif" font-size="14.00" fill="#000000">LogService</text>
</g>
<!-- LogService&#45;&gt;AppModule -->
<g id="edge19" class="edge">
<title>LogService&#45;&gt;AppModule</title>
<path fill="none" stroke="#000000" d="M1349,-122.0449C1349,-143.6623 1349,-177 1349,-177 1349,-177 2308.1648,-177 2308.1648,-177"/>
<polygon fill="#000000" stroke="#000000" points="2308.1648,-180.5001 2318.1648,-177 2308.1648,-173.5001 2308.1648,-180.5001"/>
</g>
<!-- { provide: HTTP_INTERCEPTORS, useClass: AuthInterceptor, multi: &#160;} -->
<g id="node20" class="node">
<title>{ provide: HTTP_INTERCEPTORS, useClass: AuthInterceptor, multi: &#160;}</title>
<ellipse fill="#fdb462" stroke="#000000" cx="980" cy="-104" rx="295.4326" ry="18"/>
<text text-anchor="middle" x="980" y="-99.8" font-family="Times,serif" font-size="14.00" fill="#000000">{ provide: HTTP_INTERCEPTORS, useClass: AuthInterceptor, multi: &#160;}</text>
</g>
<!-- { provide: HTTP_INTERCEPTORS, useClass: AuthInterceptor, multi: &#160;}&#45;&gt;AppModule -->
<g id="edge20" class="edge">
<title>{ provide: HTTP_INTERCEPTORS, useClass: AuthInterceptor, multi: &#160;}&#45;&gt;AppModule</title>
<path fill="none" stroke="#000000" d="M980,-122.0109C980,-144.4852 980,-180 980,-180 980,-180 2308.3234,-180 2308.3234,-180"/>
<polygon fill="#000000" stroke="#000000" points="2308.3234,-183.5001 2318.3234,-180 2308.3233,-176.5001 2308.3234,-183.5001"/>
</g>
<!-- { provide: HTTP_INTERCEPTORS, useClass: ServerErrorInterceptor, multi: &#160;} -->
<g id="node21" class="node">
<title>{ provide: HTTP_INTERCEPTORS, useClass: ServerErrorInterceptor, multi: &#160;}</title>
<ellipse fill="#fdb462" stroke="#000000" cx="345" cy="-104" rx="321.4528" ry="18"/>
<text text-anchor="middle" x="345" y="-99.8" font-family="Times,serif" font-size="14.00" fill="#000000">{ provide: HTTP_INTERCEPTORS, useClass: ServerErrorInterceptor, multi: &#160;}</text>
</g>
<!-- { provide: HTTP_INTERCEPTORS, useClass: ServerErrorInterceptor, multi: &#160;}&#45;&gt;AppModule -->
<g id="edge21" class="edge">
<title>{ provide: HTTP_INTERCEPTORS, useClass: ServerErrorInterceptor, multi: &#160;}&#45;&gt;AppModule</title>
<path fill="none" stroke="#000000" d="M345,-122.1532C345,-145.7566 345,-184 345,-184 345,-184 2307.9139,-184 2307.9139,-184"/>
<polygon fill="#000000" stroke="#000000" points="2307.9139,-187.5001 2317.9139,-184 2307.9138,-180.5001 2307.9139,-187.5001"/>
</g>
</g>
</svg>
