<?xml version="1.0" encoding="UTF-8" standalone="no"?>
<!DOCTYPE svg PUBLIC "-//W3C//DTD SVG 1.1//EN"
 "http://www.w3.org/Graphics/SVG/1.1/DTD/svg11.dtd">
<!-- Generated by graphviz version 2.40.1 (20161225.0304)
 -->
<!-- Title: dependencies Pages: 1 -->
<svg width="2465pt" height="284pt"
 viewBox="0.00 0.00 2465.00 284.00" xmlns="http://www.w3.org/2000/svg" xmlns:xlink="http://www.w3.org/1999/xlink">
<g id="graph0" class="graph" transform="scale(1 1) rotate(0) translate(4 280)">
<title>dependencies</title>
<polygon fill="#ffffff" stroke="transparent" points="-4,4 -4,-280 2461,-280 2461,4 -4,4"/>
<text text-anchor="start" x="1207.5091" y="-42.4" font-family="sans-serif" font-weight="bold" font-size="14.00" fill="#000000">Legend</text>
<polygon fill="#ffffb3" stroke="transparent" points="994.5,-10 994.5,-30 1014.5,-30 1014.5,-10 994.5,-10"/>
<text text-anchor="start" x="1018.129" y="-15.4" font-family="sans-serif" font-size="14.00" fill="#000000"> &#160;Declarations</text>
<polygon fill="#8dd3c7" stroke="transparent" points="1107.5,-10 1107.5,-30 1127.5,-30 1127.5,-10 1107.5,-10"/>
<text text-anchor="start" x="1131.2251" y="-15.4" font-family="sans-serif" font-size="14.00" fill="#000000"> &#160;Module</text>
<polygon fill="#80b1d3" stroke="transparent" points="1193.5,-10 1193.5,-30 1213.5,-30 1213.5,-10 1193.5,-10"/>
<text text-anchor="start" x="1217.2812" y="-15.4" font-family="sans-serif" font-size="14.00" fill="#000000"> &#160;Bootstrap</text>
<polygon fill="#fdb462" stroke="transparent" points="1290.5,-10 1290.5,-30 1310.5,-30 1310.5,-10 1290.5,-10"/>
<text text-anchor="start" x="1314.1732" y="-15.4" font-family="sans-serif" font-size="14.00" fill="#000000"> &#160;Providers</text>
<polygon fill="#fb8072" stroke="transparent" points="1386.5,-10 1386.5,-30 1406.5,-30 1406.5,-10 1386.5,-10"/>
<text text-anchor="start" x="1410.2258" y="-15.4" font-family="sans-serif" font-size="14.00" fill="#000000"> &#160;Exports</text>
<g id="clust1" class="cluster">
<title>cluster_AppModule</title>
<polygon fill="none" stroke="#000000" stroke-dasharray="1,5" points="8,-70 8,-268 2449,-268 2449,-70 8,-70"/>
</g>
<g id="clust2" class="cluster">
<title>cluster_AppModule_declarations</title>
<polygon fill="none" stroke="#000000" points="2182,-78 2182,-130 2441,-130 2441,-78 2182,-78"/>
</g>
<g id="clust5" class="cluster">
<title>cluster_AppModule_imports</title>
<polygon fill="none" stroke="#000000" points="16,-78 16,-130 2174,-130 2174,-78 16,-78"/>
</g>
<g id="clust7" class="cluster">
<title>cluster_AppModule_bootstrap</title>
<polygon fill="none" stroke="#000000" points="1234,-208 1234,-260 1358,-260 1358,-208 1234,-208"/>
</g>
<!-- AppComponent -->
<g id="node1" class="node">
<title>AppComponent</title>
<polygon fill="#ffffb3" stroke="#000000" points="2432.9399,-122 2327.0601,-122 2327.0601,-86 2432.9399,-86 2432.9399,-122"/>
<text text-anchor="middle" x="2380" y="-99.8" font-family="Times,serif" font-size="14.00" fill="#000000">AppComponent</text>
</g>
<!-- AppModule -->
<g id="node3" class="node">
<title>AppModule</title>
<polygon fill="#8dd3c7" stroke="#000000" points="1337.6571,-187 1334.6571,-191 1313.6571,-191 1310.6571,-187 1254.3429,-187 1254.3429,-151 1337.6571,-151 1337.6571,-187"/>
<text text-anchor="middle" x="1296" y="-164.8" font-family="Times,serif" font-size="14.00" fill="#000000">AppModule</text>
</g>
<!-- AppComponent&#45;&gt;AppModule -->
<g id="edge1" class="edge">
<title>AppComponent&#45;&gt;AppModule</title>
<path fill="none" stroke="#000000" d="M2380,-122.3228C2380,-145.6602 2380,-183 2380,-183 2380,-183 1347.8299,-183 1347.8299,-183"/>
<polygon fill="#000000" stroke="#000000" points="1347.8299,-179.5001 1337.8299,-183 1347.8298,-186.5001 1347.8299,-179.5001"/>
</g>
<!-- ProfileComponent -->
<g id="node2" class="node">
<title>ProfileComponent</title>
<polygon fill="#ffffb3" stroke="#000000" points="2309.9328,-122 2190.0672,-122 2190.0672,-86 2309.9328,-86 2309.9328,-122"/>
<text text-anchor="middle" x="2250" y="-99.8" font-family="Times,serif" font-size="14.00" fill="#000000">ProfileComponent</text>
</g>
<!-- ProfileComponent&#45;&gt;AppModule -->
<g id="edge2" class="edge">
<title>ProfileComponent&#45;&gt;AppModule</title>
<path fill="none" stroke="#000000" d="M2250,-122.2921C2250,-144.2057 2250,-178 2250,-178 2250,-178 1347.9139,-178 1347.9139,-178"/>
<polygon fill="#000000" stroke="#000000" points="1347.9139,-174.5001 1337.9139,-178 1347.9138,-181.5001 1347.9139,-174.5001"/>
</g>
<!-- AppComponent  -->
<g id="node18" class="node">
<title>AppComponent </title>
<polygon fill="#80b1d3" stroke="#000000" points="1350.439,-252 1241.561,-252 1241.561,-216 1350.439,-216 1350.439,-252"/>
<text text-anchor="middle" x="1296" y="-229.8" font-family="Times,serif" font-size="14.00" fill="#000000">AppComponent </text>
</g>
<!-- AppModule&#45;&gt;AppComponent  -->
<g id="edge17" class="edge">
<title>AppModule&#45;&gt;AppComponent </title>
<path fill="none" stroke="#000000" stroke-dasharray="1,5" d="M1296,-187.1061C1296,-187.1061 1296,-205.991 1296,-205.991"/>
<polygon fill="#000000" stroke="#000000" points="1292.5001,-205.9909 1296,-215.991 1299.5001,-205.991 1292.5001,-205.9909"/>
</g>
<!-- BrowserModule -->
<g id="node4" class="node">
<title>BrowserModule</title>
<polygon fill="#8dd3c7" stroke="#000000" points="2166.4734,-122 2163.4734,-126 2142.4734,-126 2139.4734,-122 2059.5266,-122 2059.5266,-86 2166.4734,-86 2166.4734,-122"/>
<text text-anchor="middle" x="2113" y="-99.8" font-family="Times,serif" font-size="14.00" fill="#000000">BrowserModule</text>
</g>
<!-- BrowserModule&#45;&gt;AppModule -->
<g id="edge3" class="edge">
<title>BrowserModule&#45;&gt;AppModule</title>
<path fill="none" stroke="#000000" d="M2113,-122.0267C2113,-142.7672 2113,-174 2113,-174 2113,-174 1347.9213,-174 1347.9213,-174"/>
<polygon fill="#000000" stroke="#000000" points="1347.9213,-170.5001 1337.9213,-174 1347.9213,-177.5001 1347.9213,-170.5001"/>
</g>
<!-- FormsModule -->
<g id="node5" class="node">
<title>FormsModule</title>
<polygon fill="#8dd3c7" stroke="#000000" points="2041.8288,-122 2038.8288,-126 2017.8288,-126 2014.8288,-122 1946.1712,-122 1946.1712,-86 2041.8288,-86 2041.8288,-122"/>
<text text-anchor="middle" x="1994" y="-99.8" font-family="Times,serif" font-size="14.00" fill="#000000">FormsModule</text>
</g>
<!-- FormsModule&#45;&gt;AppModule -->
<g id="edge4" class="edge">
<title>FormsModule&#45;&gt;AppModule</title>
<path fill="none" stroke="#000000" d="M1994,-122.1061C1994,-141.3391 1994,-169 1994,-169 1994,-169 1347.8316,-169 1347.8316,-169"/>
<polygon fill="#000000" stroke="#000000" points="1347.8316,-165.5001 1337.8316,-169 1347.8316,-172.5001 1347.8316,-165.5001"/>
</g>
<!-- ReactiveFormsModule -->
<g id="node6" class="node">
<title>ReactiveFormsModule</title>
<polygon fill="#8dd3c7" stroke="#000000" points="1928.3047,-122 1925.3047,-126 1904.3047,-126 1901.3047,-122 1783.6953,-122 1783.6953,-86 1928.3047,-86 1928.3047,-122"/>
<text text-anchor="middle" x="1856" y="-99.8" font-family="Times,serif" font-size="14.00" fill="#000000">ReactiveFormsModule</text>
</g>
<!-- ReactiveFormsModule&#45;&gt;AppModule -->
<g id="edge5" class="edge">
<title>ReactiveFormsModule&#45;&gt;AppModule</title>
<path fill="none" stroke="#000000" d="M1856,-122.302C1856,-140.2699 1856,-165 1856,-165 1856,-165 1348.091,-165 1348.091,-165"/>
<polygon fill="#000000" stroke="#000000" points="1348.0911,-161.5001 1338.091,-165 1348.091,-168.5001 1348.0911,-161.5001"/>
</g>
<!-- AppRoutingModule -->
<g id="node7" class="node">
<title>AppRoutingModule</title>
<polygon fill="#8dd3c7" stroke="#000000" points="1765.2744,-122 1762.2744,-126 1741.2744,-126 1738.2744,-122 1636.7256,-122 1636.7256,-86 1765.2744,-86 1765.2744,-122"/>
<text text-anchor="middle" x="1701" y="-99.8" font-family="Times,serif" font-size="14.00" fill="#000000">AppRoutingModule</text>
</g>
<!-- AppRoutingModule&#45;&gt;AppModule -->
<g id="edge6" class="edge">
<title>AppRoutingModule&#45;&gt;AppModule</title>
<path fill="none" stroke="#000000" d="M1701,-122.027C1701,-138.3976 1701,-160 1701,-160 1701,-160 1347.8167,-160 1347.8167,-160"/>
<polygon fill="#000000" stroke="#000000" points="1347.8167,-156.5001 1337.8167,-160 1347.8167,-163.5001 1347.8167,-156.5001"/>
</g>
<!-- BrowserAnimationsModule -->
<g id="node8" class="node">
<title>BrowserAnimationsModule</title>
<polygon fill="#8dd3c7" stroke="#000000" points="1618.3019,-122 1615.3019,-126 1594.3019,-126 1591.3019,-122 1445.6981,-122 1445.6981,-86 1618.3019,-86 1618.3019,-122"/>
<text text-anchor="middle" x="1532" y="-99.8" font-family="Times,serif" font-size="14.00" fill="#000000">BrowserAnimationsModule</text>
</g>
<!-- BrowserAnimationsModule&#45;&gt;AppModule -->
<g id="edge7" class="edge">
<title>BrowserAnimationsModule&#45;&gt;AppModule</title>
<path fill="none" stroke="#000000" d="M1532,-122.1871C1532,-137.1824 1532,-156 1532,-156 1532,-156 1347.9201,-156 1347.9201,-156"/>
<polygon fill="#000000" stroke="#000000" points="1347.9202,-152.5001 1337.9201,-156 1347.9201,-159.5001 1347.9202,-152.5001"/>
</g>
<!-- FlexLayoutModule -->
<g id="node9" class="node">
<title>FlexLayoutModule</title>
<polygon fill="#8dd3c7" stroke="#000000" points="1428.0954,-122 1425.0954,-126 1404.0954,-126 1401.0954,-122 1303.9046,-122 1303.9046,-86 1428.0954,-86 1428.0954,-122"/>
<text text-anchor="middle" x="1366" y="-99.8" font-family="Times,serif" font-size="14.00" fill="#000000">FlexLayoutModule</text>
</g>
<!-- FlexLayoutModule&#45;&gt;AppModule -->
<g id="edge8" class="edge">
<title>FlexLayoutModule&#45;&gt;AppModule</title>
<path fill="none" stroke="#000000" d="M1320.8903,-122.1061C1320.8903,-122.1061 1320.8903,-140.991 1320.8903,-140.991"/>
<polygon fill="#000000" stroke="#000000" points="1317.3903,-140.9909 1320.8903,-150.991 1324.3903,-140.991 1317.3903,-140.9909"/>
</g>
<!-- HttpClientModule -->
<g id="node10" class="node">
<title>HttpClientModule</title>
<polygon fill="#8dd3c7" stroke="#000000" points="1286.1611,-122 1283.1611,-126 1262.1611,-126 1259.1611,-122 1167.8389,-122 1167.8389,-86 1286.1611,-86 1286.1611,-122"/>
<text text-anchor="middle" x="1227" y="-99.8" font-family="Times,serif" font-size="14.00" fill="#000000">HttpClientModule</text>
</g>
<!-- HttpClientModule&#45;&gt;AppModule -->
<g id="edge9" class="edge">
<title>HttpClientModule&#45;&gt;AppModule</title>
<path fill="none" stroke="#000000" d="M1270.2511,-122.1061C1270.2511,-122.1061 1270.2511,-140.991 1270.2511,-140.991"/>
<polygon fill="#000000" stroke="#000000" points="1266.7511,-140.9909 1270.2511,-150.991 1273.7511,-140.991 1266.7511,-140.9909"/>
</g>
<!-- StoreModule.forRoot(args) -->
<g id="node11" class="node">
<title>StoreModule.forRoot(args)</title>
<polygon fill="#8dd3c7" stroke="#000000" points="1149.2877,-122 1146.2877,-126 1125.2877,-126 1122.2877,-122 980.7123,-122 980.7123,-86 1149.2877,-86 1149.2877,-122"/>
<text text-anchor="middle" x="1065" y="-99.8" font-family="Times,serif" font-size="14.00" fill="#000000">StoreModule.forRoot(args)</text>
</g>
<!-- StoreModule.forRoot(args)&#45;&gt;AppModule -->
<g id="edge10" class="edge">
<title>StoreModule.forRoot(args)&#45;&gt;AppModule</title>
<path fill="none" stroke="#000000" d="M1065,-122.1871C1065,-137.1824 1065,-156 1065,-156 1065,-156 1244.1676,-156 1244.1676,-156"/>
<polygon fill="#000000" stroke="#000000" points="1244.1677,-159.5001 1254.1676,-156 1244.1676,-152.5001 1244.1677,-159.5001"/>
</g>
<!-- StoreDevtoolsModule.instrument(args) -->
<g id="node12" class="node">
<title>StoreDevtoolsModule.instrument(args)</title>
<polygon fill="#8dd3c7" stroke="#000000" points="962.6686,-122 959.6686,-126 938.6686,-126 935.6686,-122 727.3314,-122 727.3314,-86 962.6686,-86 962.6686,-122"/>
<text text-anchor="middle" x="845" y="-99.8" font-family="Times,serif" font-size="14.00" fill="#000000">StoreDevtoolsModule.instrument(args)</text>
</g>
<!-- StoreDevtoolsModule.instrument(args)&#45;&gt;AppModule -->
<g id="edge11" class="edge">
<title>StoreDevtoolsModule.instrument(args)&#45;&gt;AppModule</title>
<path fill="none" stroke="#000000" d="M845,-122.027C845,-138.3976 845,-160 845,-160 845,-160 1243.976,-160 1243.976,-160"/>
<polygon fill="#000000" stroke="#000000" points="1243.976,-163.5001 1253.976,-160 1243.976,-156.5001 1243.976,-163.5001"/>
</g>
<!-- ServiceWorkerModule.register(args) -->
<g id="node13" class="node">
<title>ServiceWorkerModule.register(args)</title>
<polygon fill="#8dd3c7" stroke="#000000" points="709.3954,-122 706.3954,-126 685.3954,-126 682.3954,-122 486.6046,-122 486.6046,-86 709.3954,-86 709.3954,-122"/>
<text text-anchor="middle" x="598" y="-99.8" font-family="Times,serif" font-size="14.00" fill="#000000">ServiceWorkerModule.register(args)</text>
</g>
<!-- ServiceWorkerModule.register(args)&#45;&gt;AppModule -->
<g id="edge12" class="edge">
<title>ServiceWorkerModule.register(args)&#45;&gt;AppModule</title>
<path fill="none" stroke="#000000" d="M598,-122.302C598,-140.2699 598,-165 598,-165 598,-165 1244.1684,-165 1244.1684,-165"/>
<polygon fill="#000000" stroke="#000000" points="1244.1684,-168.5001 1254.1684,-165 1244.1684,-161.5001 1244.1684,-168.5001"/>
</g>
<!-- MaterialModule -->
<g id="node14" class="node">
<title>MaterialModule</title>
<polygon fill="#8dd3c7" stroke="#000000" points="468.4706,-122 465.4706,-126 444.4706,-126 441.4706,-122 361.5294,-122 361.5294,-86 468.4706,-86 468.4706,-122"/>
<text text-anchor="middle" x="415" y="-99.8" font-family="Times,serif" font-size="14.00" fill="#000000">MaterialModule</text>
</g>
<!-- MaterialModule&#45;&gt;AppModule -->
<g id="edge13" class="edge">
<title>MaterialModule&#45;&gt;AppModule</title>
<path fill="none" stroke="#000000" d="M415,-122.1061C415,-141.3391 415,-169 415,-169 415,-169 1244.1002,-169 1244.1002,-169"/>
<polygon fill="#000000" stroke="#000000" points="1244.1003,-172.5001 1254.1002,-169 1244.1002,-165.5001 1244.1003,-172.5001"/>
</g>
<!-- CoreModule -->
<g id="node15" class="node">
<title>CoreModule</title>
<polygon fill="#8dd3c7" stroke="#000000" points="343.2619,-122 340.2619,-126 319.2619,-126 316.2619,-122 256.7381,-122 256.7381,-86 343.2619,-86 343.2619,-122"/>
<text text-anchor="middle" x="300" y="-99.8" font-family="Times,serif" font-size="14.00" fill="#000000">CoreModule</text>
</g>
<!-- CoreModule&#45;&gt;AppModule -->
<g id="edge14" class="edge">
<title>CoreModule&#45;&gt;AppModule</title>
<path fill="none" stroke="#000000" d="M300,-122.0267C300,-142.7672 300,-174 300,-174 300,-174 1244.1558,-174 1244.1558,-174"/>
<polygon fill="#000000" stroke="#000000" points="1244.1558,-177.5001 1254.1558,-174 1244.1557,-170.5001 1244.1558,-177.5001"/>
</g>
<!-- AdminModule -->
<g id="node16" class="node">
<title>AdminModule</title>
<polygon fill="#8dd3c7" stroke="#000000" points="238.4386,-122 235.4386,-126 214.4386,-126 211.4386,-122 139.5614,-122 139.5614,-86 238.4386,-86 238.4386,-122"/>
<text text-anchor="middle" x="189" y="-99.8" font-family="Times,serif" font-size="14.00" fill="#000000">AdminModule</text>
</g>
<!-- AdminModule&#45;&gt;AppModule -->
<g id="edge15" class="edge">
<title>AdminModule&#45;&gt;AppModule</title>
<path fill="none" stroke="#000000" d="M189,-122.2921C189,-144.2057 189,-178 189,-178 189,-178 1244.291,-178 1244.291,-178"/>
<polygon fill="#000000" stroke="#000000" points="1244.291,-181.5001 1254.291,-178 1244.2909,-174.5001 1244.291,-181.5001"/>
</g>
<!-- SharedModule -->
<g id="node17" class="node">
<title>SharedModule</title>
<polygon fill="#8dd3c7" stroke="#000000" points="122.4231,-122 119.4231,-126 98.4231,-126 95.4231,-122 23.5769,-122 23.5769,-86 122.4231,-86 122.4231,-122"/>
<text text-anchor="middle" x="73" y="-99.8" font-family="Times,serif" font-size="14.00" fill="#000000">SharedModule</text>
</g>
<!-- SharedModule&#45;&gt;AppModule -->
<g id="edge16" class="edge">
<title>SharedModule&#45;&gt;AppModule</title>
<path fill="none" stroke="#000000" d="M73,-122.3228C73,-145.6602 73,-183 73,-183 73,-183 1244.2554,-183 1244.2554,-183"/>
<polygon fill="#000000" stroke="#000000" points="1244.2554,-186.5001 1254.2554,-183 1244.2553,-179.5001 1244.2554,-186.5001"/>
</g>
</g>
</svg>
